<svg xmlns="http://www.w3.org/2000/svg" xmlns:xlink="http://www.w3.org/1999/xlink" viewBox="0 0 189.2 19">
  <path fill="#fff" d="M78.3 3.9c0.2 0.6 0.3 1.3 0.3 2.1v12h-2.2V6c0-2.4-1.6-3.6-4.8-3.6 -1.4 0-2.9 0-4.6 0.1l-0.9 0.1V0.8c2.1-0.1 4-0.2 5.7-0.2s3.1 0.3 4.2 0.8C77.1 1.9 77.8 2.7 78.3 3.9zM68.3 18h-2.2V7.1h2.2V18zM82.6 12.2V0.8h2.2v9.1l-1.8 2.3H82.6zM94.6 0.6c2.1 0 3.7 0.7 4.9 2.2 1.2 1.5 1.8 3.7 1.8 6.7 0 1.2-0.1 2.3-0.3 3.3s-0.5 1.8-1 2.5 -0.9 1.3-1.5 1.7c-0.6 0.5-1.2 0.8-1.8 1 -0.7 0.2-1.4 0.3-2.1 0.3 -0.7 0-1.4-0.1-2.1-0.3 -0.7-0.2-1.3-0.6-1.8-1 -0.6-0.5-1.1-1-1.5-1.7 -0.4-0.7-0.7-1.5-1-2.5s-0.3-2.1-0.3-3.3c0-1.7 0.2-3.1 0.6-4.2 0.4-1.1 0.8-2 1.4-2.6l-1.7 0.1V0.8C90 0.6 92.2 0.6 94.6 0.6zM90.7 5.6c-0.3 1.3-0.5 2.5-0.5 3.6s0.1 2.1 0.2 2.8c0.1 0.8 0.4 1.5 0.7 2.2 0.3 0.7 0.8 1.2 1.4 1.6 0.6 0.4 1.3 0.6 2.1 0.6 0.8 0 1.5-0.2 2.1-0.6 0.6-0.4 1.1-0.9 1.4-1.6 0.6-1.3 0.9-2.9 0.9-4.8 0-2.6-0.4-4.4-1.3-5.5 -0.3-0.4-0.7-0.8-1.3-1s-1.1-0.4-1.8-0.4l-2.4 0C91.6 3.2 91 4.3 90.7 5.6zM106.8 18h-2.2V0.8h2.2V18zM109.6 0.7c1.2-0.1 2.4-0.1 3.3-0.1s1.8 0.1 2.5 0.2c0.7 0.1 1.3 0.3 1.8 0.6 0.6 0.3 1 0.6 1.4 1 0.8 0.9 1.2 2.1 1.2 3.7v12h-2.2V6c0-2.4-1.6-3.6-4.8-3.6 -1 0-2.1 0-3.3 0.1V0.7zM7.8 0.6c1.6 0 2.9 0.4 3.8 1.2 0.9 0.8 1.4 1.9 1.4 3.3 0 1.1-0.3 2.1-0.9 3.2s-1.7 2.4-3.4 4l-3.8 3.7v0.1h8.8V18H2.4v-1.7l4.5-4.5c1.4-1.4 2.3-2.5 2.8-3s0.7-1.1 0.9-1.7S11 5.9 11 5.3c0-0.9-0.3-1.6-0.8-2.2S8.8 2.3 7.8 2.3c-0.7 0-1.4 0.1-2 0.4S4.5 3.3 3.7 3.9l-1-1.3C4.2 1.3 5.9 0.6 7.8 0.6zM16.2 9.3c0-2.9 0.5-5.1 1.4-6.6s2.3-2.2 4.2-2.2 3.3 0.8 4.3 2.3 1.5 3.7 1.5 6.6c0 2.9-0.5 5.1-1.4 6.6s-2.3 2.2-4.2 2.2 -3.3-0.7-4.3-2.2S16.2 12.3 16.2 9.3zM24.6 4c-0.6-1.1-1.5-1.7-2.8-1.7S19.6 2.8 19 4s-0.9 2.9-0.9 5.4c0 2.5 0.3 4.3 0.9 5.4s1.5 1.7 2.8 1.7 2.2-0.6 2.8-1.7 0.9-3 0.9-5.4C25.5 6.9 25.2 5.1 24.6 4zM37.1 18h-1.9V5.8c0-1 0-1.9 0.1-2.9 -0.2 0.2-0.3 0.3-0.5 0.5s-1.1 0.9-2.9 2.3l-1-1.3 4.5-3.5h1.6V18zM44.2 4.7c0-1.2 0.5-2.2 1.4-3s2.2-1.1 3.7-1.1S52.1 1 53 1.7s1.4 1.7 1.4 3c0 0.9-0.3 1.6-0.8 2.3s-1.4 1.3-2.5 1.9c1.4 0.7 2.4 1.4 3 2.1 0.6 0.7 0.9 1.6 0.9 2.5 0 1.4-0.5 2.6-1.5 3.4 -1 0.8-2.4 1.3-4.2 1.3s-3.2-0.4-4.1-1.2 -1.5-1.9-1.5-3.4c0-2 1.2-3.5 3.6-4.6 -1.1-0.6-1.8-1.3-2.3-2S44.2 5.6 44.2 4.7zM46.3 11.5c-0.5 0.6-0.8 1.4-0.8 2.2s0.3 1.6 1 2.1c0.7 0.5 1.6 0.8 2.7 0.8s2.1-0.3 2.7-0.8c0.6-0.5 1-1.3 1-2.3 0-0.8-0.3-1.4-0.9-2s-1.7-1.2-3.2-1.7C47.7 10.3 46.9 10.9 46.3 11.5zM51.6 2.9c-0.6-0.5-1.3-0.7-2.3-0.7s-1.8 0.2-2.3 0.7S46.1 4 46.1 4.7s0.2 1.4 0.7 1.9c0.5 0.5 1.3 1 2.6 1.5 1.1-0.5 1.9-1 2.4-1.5s0.7-1.2 0.7-1.9S52.1 3.4 51.6 2.9zM188.2 2.7c0 0 0.1-2.7-1.1-2.7H173c0 0-1.5 2.2 0.1 5.1 0 0 11.7 0 11.8 0 1 0.2 1.3 1.5 1.3 2.5 0 1-0.5 2.7-0.7 3.6 -0.2 0.7 0.7 3.9 1.2 6.6l0.3 0c0.1-0.2 1.2-5.8 1.1-6.6 -0.1-0.5-0.4-1.2-0.7-2.3 -0.4-1.7-0.2-2.6 0.5-3.8C188.2 4.7 188.2 2.9 188.2 2.7M174.1 7.7c0 0-0.2 2.1-1 4.2 -0.2 1.4-0.1 2.3 0.2 3.6 0.2 1.1 0.5 1.7 0.8 2.4l0.3 0c1.6-4.1 1.3-6.1 0-10.2C174.3 7.7 174.1 7.8 174.1 7.7M139.7 0.1l-5.5 0c0.9 2.2 0.7 4.6 0 6.8 -0.1 0.4 0.1 1.6 0.4 1.5 0.7-2 0.9-2.9 2.6-3.2 0.1 0 0.6 0 0.9 0 0.8 0 1.6 0 1.6 0C139.4 4.6 138.4 2.7 139.7 0.1M133.5 0.1c0 0-6.3-0.1-6.3 0 1.4 2.1 1.1 4.4 1.1 5 0 0 1.2 0 2.5 0 1 0 2.3 1.8 1 5.9 -0.1 0.2 1.3 5.7 1.6 7 0 0.1 0.2 0 0.2 0 0.4-2.4 0.5-3.2 1.2-7.1C133.8 8.3 131.8 5.1 133.5 0.1M171.6 11.6c-1.7-1.2-3-2.3-5.1-3.8 -0.3-0.2-0.5-0.8-0.4-1.4 0.1-0.7 0.7-1.3 1.3-1.3 2.1 0 4.1 0 4.1 0s-1.5-2.6-0.1-5.1c-5.1 0-5.7 0-5.7 0 0 0.4-0.2 0.9-0.2 1.7 0 0.9 0.6 1.6 0.3 3 -0.3 1-0.6 1.5-0.9 1.7 -2.7-2-6.5-5-8.1-6.3h-1.1c0 0-0.1 0-0.1 0.1 0.6 1.2 0.8 2.7 0.7 4.1 -0.2 1.8-0.4 2.1-0.4 3.6 0 1.7 0.5 3.1 0.4 4.7 -0.1 2.4-0.6 4.4-0.8 5.1 -0.2 0.3 0 0.3 0 0.3h6.7c-1.2-2.5-0.7-4.5-0.7-4.5H159c-1.9 0-2-2.7-1.8-4.6 0.2-1.4 1-2.1 1-2.1l14.1 10.8c0 0 0.1 0 0-0.1 -0.4-1-0.8-2-0.9-3C171.2 13.1 171.3 12.8 171.6 11.6M154.2 8.5c0.1 0.9 0.5 2.7 0.4 4.2 -0.1 1.8-0.7 4.4-0.9 4.9 -0.1 0 0 0.1-0.2 0 -0.4-1.9-1.5-5.9-1.4-6.1 0.5-0.7 0.9-1.9 1-3 0.1-1.6-0.5-3.2-1.8-3.4 0 0-9.9 0-10 0 -0.8-1.3-1.1-3.3 0-5.1h12.5c0.7 0.9 0.8 2.7 0.9 3.3C154.7 4.3 154 6.5 154.2 8.5"/>
</svg>
