<svg xmlns="http://www.w3.org/2000/svg" xmlns:xlink="http://www.w3.org/1999/xlink" viewBox="0 0 444 404.8">
  <g>
    <g>
      <g>
        <g>
          <path fill="#BF7550" d="M460.5 335.8c0 0-2.8-30.7-28.5-77.6 0 0-29.2-8.3-44.9 33.6 0 0 21.1 24.3 36.1 37.5l-43.6 40.9 -6.1 1.6c0 0-6.3-0.7-6.5-4.3 -0.2-3.6-4.5-3.2-4.5-3.2s2 12 6.4 13.6c4.4 1.5 8 2.9 8 2.9s84.3-11 83.6-45C460.5 335.8 460.5 335.8 460.5 335.8z"/>
          <path fill="#A3573F" d="M391.4 277.6l-87.9-19.4 -7.9-5.6c0 0 87-24.9 131.8 14.2C427.3 266.8 396.4 269.6 391.4 277.6"/>
          <path fill="#A3573F" d="M295.5 252.6c0 0-1.9 2.6-4.3 5.6 -1.2 1.5-0.9 4.2-0.3 6.5 0.6 2.4 4.1 2.5 4.7 0 0 0 0-0.1 0-0.1 0.6-2.7 3-4.6 3-4.6l5.8-1.8C304.4 258.3 300.1 252.4 295.5 252.6"/>
          <path fill="#A3573F" d="M200.2 439.9c0 0 24.7-15.5 43.1-15.6 18.4-0.1 33.5 14.7 80.8 16.1 14 0.4 11.6 8.6 11.6 8.6l1.6 2.2 -4.4 2.2 -116.2 14.2c0 0-13.2 6.8-23.1-2.8C183.6 455.2 200.2 439.9 200.2 439.9"/>
          <path fill="#859F82" d="M243.3 424.3c18.4-0.1 33.7 12.4 80.8 16.1 20.6 1.6 8.1 11.5 10.9 10.8l-0.2 7.9 -2-5.8 -106.7 13 11.1-41.6C239.3 424.5 241.3 424.3 243.3 424.3"/>
          <path fill="#D4D8D2" d="M237.2 424.8l-11.1 41.6 -9.5 1.2c0 0-0.2 0.1-0.4 0.2l11.4-40.6C230.8 426.1 234.1 425.3 237.2 424.8"/>
          <path fill="#C89859" d="M349.7 476.8l0.4 1.1c0.1 0.3-0.1 0.5-0.3 0.6l-1.8 0.6c-0.3 0.1-0.5-0.1-0.6-0.3l-0.4-1.1c-0.1-0.3 0.1-0.5 0.3-0.6l1.8-0.6C349.3 476.4 349.6 476.6 349.7 476.8"/>
          <path fill="#C89859" d="M347.4 470l0.4 1.1c0.1 0.3-0.1 0.5-0.3 0.6l-1.8 0.6c-0.2 0.1-0.5-0.1-0.6-0.3l-0.4-1.1c-0.1-0.3 0.1-0.5 0.3-0.6l1.8-0.6C347.1 469.7 347.4 469.8 347.4 470"/>
          <path fill="#C89859" d="M345.1 462.7l0.4 1.1c0.1 0.3-0.1 0.5-0.3 0.6l-1.8 0.6c-0.3 0.1-0.5-0.1-0.6-0.3l-0.4-1.1c-0.1-0.3 0.1-0.5 0.3-0.6l1.8-0.6C344.7 462.3 345 462.4 345.1 462.7"/>
          <path fill="#C89859" d="M343.2 456.7l0.4 1.1c0.1 0.3-0.1 0.5-0.3 0.6l-1.8 0.6c-0.3 0.1-0.5-0.1-0.6-0.3l-0.4-1.1c-0.1-0.3 0.1-0.5 0.3-0.6l1.8-0.6C342.8 456.3 343.1 456.5 343.2 456.7"/>
          <path fill="#C89859" d="M338.9 443l0.4 1.1c0.1 0.3-0.1 0.5-0.3 0.6l-1.8 0.6c-0.3 0.1-0.5-0.1-0.6-0.3l-0.4-1.1c-0.1-0.3 0.1-0.5 0.3-0.6l1.8-0.6C338.5 442.6 338.8 442.8 338.9 443"/>
          <path fill="#C89859" d="M337.1 437.1l0.4 1.1c0.1 0.3-0.1 0.5-0.3 0.6l-1.8 0.6c-0.3 0.1-0.5-0.1-0.6-0.3l-0.4-1.1c-0.1-0.3 0.1-0.5 0.3-0.6l1.8-0.6C336.7 436.7 337 436.8 337.1 437.1"/>
          <path fill="#573548" d="M320.7 439.1c0 0 0 2.4 4.3 3.9l0.6 1.6c0 0 1.5 7.1-2.1 8.5 -3.6 1.4-2.7 3.4-2.7 3.4s5.7 0.1 9 5.5c3.3 5.4 9.7 15 9.7 15s3.3 4.8 8.7 2.6l-7.6-23.7 -0.6-2 -1.2-3.9 -0.6-2 -1.1-3.6 -1.5-4.7 -0.8-2.8L320.7 439.1z"/>
          <polygon fill="#C89859" points="338 466.1 341.9 459.9 341.3 457.9 336.6 465.2 "/>
          <polygon fill="#C89859" points="335.5 461.2 340 454 339.4 452 334.2 460.3 "/>
          <polygon fill="#C89859" points="333.3 456.3 338.3 448.4 337.6 446.4 331.9 455.5 "/>
          <path fill="#C89859" d="M337.4 468.1c0.3-0.1 0.7 0.1 0.8 0.4 0.1 0.3-0.1 0.7-0.4 0.8 -0.3 0.1-0.7-0.1-0.8-0.4C336.9 468.6 337 468.2 337.4 468.1"/>
          <path fill="#C89859" d="M335.2 464.3c0.3-0.1 0.7 0.1 0.8 0.4 0.1 0.3-0.1 0.7-0.4 0.8 -0.3 0.1-0.7-0.1-0.8-0.4C334.7 464.7 334.9 464.4 335.2 464.3"/>
          <path fill="#C89859" d="M333 460.2c0.3-0.1 0.7 0.1 0.8 0.4 0.1 0.3-0.1 0.7-0.4 0.8 -0.3 0.1-0.7-0.1-0.8-0.4C332.5 460.7 332.7 460.3 333 460.2"/>
          <path fill="#C89859" d="M330.9 456.8c0.3-0.1 0.7 0.1 0.8 0.4 0.1 0.3-0.1 0.7-0.4 0.8 -0.3 0.1-0.7-0.1-0.8-0.4C330.3 457.2 330.5 456.9 330.9 456.8"/>
          <path fill="#C89859" d="M337.9 468.6c0 0 0 0.1 0 0.2 0 0.2-0.2 0.4-0.4 0.3l-3.8-0.4c-0.1 0-0.2-0.1-0.3-0.2 -0.1-0.1-0.1-0.2 0-0.4l1.4-3 -3.5-0.2c-0.1 0-0.2-0.1-0.3-0.2 -0.1-0.1-0.1-0.2 0-0.4l1.5-3.1 -3.3 0.2c-0.1 0-0.3-0.1-0.3-0.2 -0.1-0.1-0.1-0.3 0-0.4l1.9-3.9c0.1-0.2 0.3-0.3 0.5-0.2 0.2 0.1 0.3 0.3 0.2 0.5l-1.6 3.3 3.3-0.2c0.1 0 0.3 0.1 0.3 0.2 0.1 0.1 0.1 0.3 0 0.4l-1.5 3.2 3.5 0.2c0.1 0 0.2 0.1 0.3 0.2 0.1 0.1 0.1 0.2 0 0.4l-1.4 3 3.3 0.3C337.8 468.4 337.9 468.5 337.9 468.6"/>
          <path fill="#B7202C" d="M300.8 332.7c0 0 74.3-10.8 95.6-54.8 17.2-35.4 13.2-47 8.3-66.4l-17.7-7 -12.6-3.1c-46.4 12.9-49.6 27.2-52.6 38.1 -4.6 16.5-10.5 37-32 39C286.6 278.7 300.8 332.7 300.8 332.7"/>
          <path fill="#313758" d="M297.6 326.9c0 0-17.3 27.7-43.6 18 -14.3-5.3-7.5-7.1-15.4-28 -7.9-20.9-14-45.1-14-45.1S292 238 297.6 326.9"/>
          <path fill="#A3573F" d="M209.2 469.6l71.7-119.2 -41.4-42.1c1.4-2.3-58.4 65.5-52.6 132.4 0 0-2.5 11.4-2.8 19.4C183.8 468.2 209.2 469.6 209.2 469.6"/>
          <path fill="#BF7550" d="M175.7 171.8c0 0-9.5-6.9-16.7-10.4 -0.2-0.1-0.4-0.1-0.5-0.2 -5.7-3-11.7-2.8-11.7-2.8L28.3 125.3l-6.2-8.7 -3.7 6.7c-3.4 6.1-0.7 13.8 5.7 16.4 5.7 2.4 13.3 5.6 22.7 10 22.4 10.4 38.8 29.9 56.1 37.8 17.3 7.9 35.2-2.8 35.2-2.8s3.3 1.4 7.1 2.8l75.4 106.7 55.2-21C277.3 275.4 255.3 195.5 175.7 171.8z"/>
          <path fill="#859F82" d="M28.3 125.3l-6.2-8.7 -6.4 11.5c-2 3.6-0.4 8.2 3.5 9.7 5.9 2.3 15.2 6.2 27.6 12 22.4 10.4 38.8 29.9 56.1 37.8 8.2 3.7 16.4 3.3 22.9 1.8l9.4-34.2L28.3 125.3z"/>
          <path fill="#D4D8D2" d="M141.6 157l-6.5-1.8 -9.4 34.2c3.7-0.9 6.9-2 9-3l8.1-28.2L141.6 157z"/>
          <path fill="#D4D8D2" d="M137.1 180.4c0 0-20-24.9-50.9-17.2C86.2 163.3 110.7 147 137.1 180.4"/>
          <path fill="#931B1D" d="M224.2 305.9l2.5 5.9c0 0-24 24-38 73.9l62.8 19.3 34.8-62.3c0 0 0.2-46.9-16.5-58.6C269.8 284.1 243.5 292 224.2 305.9"/>
          <path fill="#C89859" d="M9.1 92.4l0-0.7c0-0.5 0.3-0.9 0.8-0.9l1.4 0.1c0.5 0 0.9 0.5 0.9 1l0 0.7c0 0.5-0.3 0.9-0.8 0.9l-1.4-0.1C9.5 93.4 9.1 92.9 9.1 92.4"/>
          <path fill="#C89859" d="M9.6 100l-0.1-0.7c0-0.5 0.3-0.9 0.8-0.9l1.4 0.1c0.5 0 0.9 0.5 0.9 1l0 0.7c0 0.5-0.3 0.9-0.8 0.9l-1.4-0.1C10 100.9 9.6 100.5 9.6 100"/>
          <path fill="#C89859" d="M10.3 109.2l0-0.7c0-0.5 0.3-0.9 0.8-0.9l1.4 0.1c0.5 0 0.9 0.5 0.9 1l0 0.7c0 0.5-0.3 0.9-0.8 0.9l-1.4-0.1C10.7 110.1 10.3 109.7 10.3 109.2"/>
          <path fill="#C89859" d="M10.8 116.6l0-0.7c0-0.5 0.3-0.9 0.8-0.9l1.4 0.1c0.5 0 0.9 0.5 0.9 1l0 0.7c0 0.5-0.3 0.9-0.8 0.9l-1.4-0.1C11.3 117.5 10.9 117.1 10.8 116.6"/>
          <path fill="#C89859" d="M11.9 131.6l0-0.7c0-0.5 0.3-0.9 0.8-0.9l1.4 0.1c0.5 0 0.9 0.5 0.9 1l0 0.7c0 0.5-0.3 0.9-0.8 0.9l-1.4-0.1C12.3 132.5 11.9 132.1 11.9 131.6"/>
          <path fill="#C89859" d="M12.2 137.6l0-0.7c0-0.5 0.3-0.9 0.8-0.9l1.4 0.1c0.5 0 0.9 0.5 0.9 1l0 0.7c0 0.5-0.3 0.9-0.8 0.9l-1.4-0.1C12.7 138.6 12.3 138.1 12.2 137.6"/>
          <path fill="#573548" d="M30.7 142.4c0 0 0.6-2.7-3.6-6.2l-0.3-5.6c0 0 0.4-1.6 4.5-1.7 4.1 0 3.6-2.7 3.6-2.7s-5.9-2.5-8.1-10c-2.2-7.5-6.4-19.9-6.4-19.9s-3.1-6.4-9.3-6.3l2.1 28.7 0.2 2.5 0.4 4.9 0.2 2.5 0.3 4.5 0.2 2.5 0.1 3.5L30.7 142.4z"/>
          <polygon fill="#C89859" points="19.4 108.4 12.9 114 13.1 116.5 20.6 110 "/>
          <polygon fill="#C89859" points="20.8 115 13.5 121.3 13.6 123.8 22 116.5 "/>
          <polygon fill="#C89859" points="22 121.3 14 128.3 14.2 130.7 23.2 122.8 "/>
          <path fill="#C89859" d="M20.5 106.4c-0.4 0-0.7-0.4-0.7-0.8 0-0.4 0.2-0.7 0.6-0.7 0.4 0 0.7 0.4 0.7 0.8C21.2 106.2 20.9 106.5 20.5 106.4"/>
          <path fill="#C89859" d="M21.8 111.7c-0.4 0-0.7-0.4-0.7-0.8 0-0.4 0.2-0.7 0.6-0.7 0.4 0 0.7 0.4 0.7 0.8C22.5 111.4 22.2 111.7 21.8 111.7"/>
          <path fill="#C89859" d="M23.2 117.1c-0.4 0-0.7-0.4-0.7-0.8 0-0.4 0.2-0.7 0.6-0.7 0.4 0 0.7 0.4 0.7 0.8C23.8 116.8 23.5 117.1 23.2 117.1"/>
          <path fill="#C89859" d="M24.6 121.9c-0.4 0-0.7-0.4-0.7-0.8 0-0.4 0.2-0.7 0.6-0.7 0.4 0 0.7 0.4 0.7 0.8C25.2 121.6 24.9 121.9 24.6 121.9"/>
          <path fill="#C89859" d="M20 105.7c0-0.1 0-0.1 0-0.2 0.1-0.2 0.3-0.3 0.5-0.2l3.9 2c0.1 0.1 0.2 0.2 0.3 0.3 0 0.1 0 0.3-0.1 0.4l-2.2 2.7 3.6 1.7c0.1 0.1 0.2 0.2 0.3 0.3 0 0.1 0 0.3-0.1 0.4l-2.3 2.8 3.5 1.2c0.1 0 0.3 0.2 0.3 0.3 0.1 0.2 0 0.3-0.1 0.4l-2.9 3.5c-0.1 0.2-0.4 0.2-0.6 0 -0.2-0.2-0.2-0.5-0.1-0.6l2.5-3 -3.5-1.2c-0.1-0.1-0.3-0.2-0.3-0.3 -0.1-0.2 0-0.3 0.1-0.4l2.3-2.9 -3.6-1.7c-0.1-0.1-0.2-0.2-0.3-0.3 0-0.1 0-0.3 0.1-0.4l2.2-2.7 -3.4-1.8C20.2 106 20.1 105.9 20 105.7"/>
          <path fill="#B7202C" d="M289.8 278.4l-5.3-0.9c-6.6-20.7-20.4-51.4-47.5-72.4l-52.1 49.9 42.1 62c0.4 1.6 0.8 3.2 1.3 4.9 12.6 51.2 75 10.6 75 10.6L289.8 278.4z"/>
          <path fill="#931B1D" d="M368 230.5c0 0-15.2 13.8-3.3 31.9 11.9 18.2 24.4 31.7 24.4 31.7l44.8-32c0 0-19.3-43-53.2-37.5C380.7 224.6 375.4 225 368 230.5"/>
          <path fill="#126433" d="M432.2 258.5l-45.4 33.8c0 0-3.2-5.1-3.7-5.4l45.8-34.2C429.4 253.5 432.2 258.5 432.2 258.5"/>
          <g>
            <g>
              <path fill="#CF9B47" d="M69.4 109.7C49.8 108.5 34.8 91.6 36 72c1.2-19.6 18.1-34.6 37.7-33.4 19.6 1.2 34.6 18.1 33.4 37.7C105.9 95.9 89 110.9 69.4 109.7"/>
            </g>
            <g>
              <polygon fill="#0D1934" points="87.1 75.8 79.1 63.1 64.5 66.5 63.6 81.8 76.7 87.8 "/>
            </g>
            <g>
              <path fill="#0D1934" d="M52.6 43.6l5.2 2.5 -2.6 14.6 -14.6 3.2 -2.4-3.6C38.3 60.4 43.8 47.4 52.6 43.6"/>
            </g>
            <g>
              <path fill="#0D1934" d="M76.3 38.4c0 0 14.9 2.6 20.8 10.7l-14.5 5 -8.6-11.8L76.3 38.4z"/>
            </g>
            <g>
              <path fill="#0D1934" d="M106.5 64.7l-9.9 11.8 7.6 11.6C104.2 88.1 108.8 80.5 106.5 64.7"/>
            </g>
            <g>
              <path fill="#0D1934" d="M93.4 103.1l-13.2-4.2 -8.4 10.8C71.8 109.7 80.6 110.9 93.4 103.1"/>
            </g>
            <g>
              <path fill="#0D1934" d="M53.4 88.5l-16.5-5.6c0 0 2 14.6 15.9 20.7L53.4 88.5z"/>
            </g>
            <g>
              <path fill="#0D1934" d="M86.3 76.2c0-0.5 0.4-0.8 0.9-0.8l9.4 0.3c0.5 0 0.8 0.4 0.8 0.9 0 0.5-0.4 0.8-0.9 0.8l-9.4-0.3C86.7 77.1 86.3 76.7 86.3 76.2L86.3 76.2z"/>
            </g>
            <g>
              <path fill="#0D1934" d="M78.3 63c0-0.1 0-0.2 0.1-0.3l3.6-8.9c0.2-0.4 0.7-0.7 1.1-0.5 0.4 0.2 0.7 0.7 0.5 1.1l-3.6 8.9c-0.2 0.4-0.7 0.7-1.1 0.5C78.4 63.7 78.2 63.4 78.3 63"/>
            </g>
            <g>
              <path fill="#0D1934" d="M76.6 87.1c0-0.4 0.3-0.7 0.7-0.8 0.5-0.1 0.9 0.2 1 0.6l2.7 11.8c0.1 0.5-0.2 0.9-0.6 1 -0.5 0.1-0.9-0.2-1-0.6l-2.7-11.7C76.7 87.2 76.6 87.2 76.6 87.1"/>
            </g>
            <g>
              <path fill="#0D1934" d="M54.4 60.7c0-0.1 0-0.3 0.1-0.4 0.3-0.4 0.8-0.5 1.2-0.3l9.3 5.7c0.4 0.2 0.5 0.8 0.3 1.2 -0.3 0.4-0.8 0.5-1.2 0.3l-9.3-5.7C54.5 61.3 54.3 61 54.4 60.7"/>
            </g>
            <g>
              <path fill="#0D1934" d="M57 46c0-0.3 0.2-0.6 0.5-0.7 5.5-2.3 11-3.6 16.5-3.9 0.5 0 0.9 0.3 0.9 0.8 0 0.5-0.3 0.9-0.8 0.9 -5.3 0.3-10.7 1.5-16 3.7 -0.4 0.2-0.9 0-1.1-0.5C57 46.3 57 46.2 57 46"/>
            </g>
            <g>
              <path fill="#0D1934" d="M95.6 49c0-0.2 0.1-0.4 0.3-0.6 0.3-0.3 0.9-0.3 1.2 0 0.3 0.3 6.7 6.9 9.6 16.9 0.1 0.5-0.1 0.9-0.6 1.1 -0.5 0.1-0.9-0.1-1.1-0.6 -2.7-9.6-9.1-16.1-9.1-16.1C95.7 49.5 95.6 49.3 95.6 49"/>
            </g>
            <g>
              <path fill="#0D1934" d="M37.5 83.5L37.5 83.5 39.4 63c0-0.5 0.5-0.8 0.9-0.8 0.5 0 0.8 0.5 0.8 0.9l-1.9 20.5c0 0.5-0.5 0.8-0.9 0.8C37.8 84.3 37.5 83.9 37.5 83.5"/>
            </g>
            <g>
              <path fill="#0D1934" d="M48 100.3c0-0.2 0.1-0.5 0.3-0.6 0.4-0.3 0.9-0.2 1.2 0.2 6.1 8.1 20.6 8.5 22.7 8.3 0.2-0.1 0.4-0.1 0.6 0 0.4 0.1 0.6 0.5 0.6 0.8 0 0.4-0.3 0.7-0.6 0.8 -0.9 0.3-17.5 0.5-24.7-8.9C48.1 100.7 48 100.5 48 100.3"/>
            </g>
            <g>
              <path fill="#0D1934" d="M51.9 88.7c0-0.3 0.2-0.5 0.4-0.7l10.8-6.9c0.4-0.3 0.9-0.1 1.2 0.3 0.3 0.4 0.1 0.9-0.3 1.2l-10.8 6.9c-0.4 0.3-0.9 0.1-1.2-0.3C52 89.1 51.9 88.9 51.9 88.7"/>
            </g>
            <g>
              <path fill="#0D1934" d="M91.9 102.8c0-0.2 0.1-0.4 0.3-0.6 3.5-3.5 8-8.3 10.9-15 0.2-0.4 0.7-0.6 1.1-0.4 0.4 0.2 0.6 0.7 0.4 1.1 -3.1 6.9-7.6 11.9-11.3 15.5 -0.3 0.3-0.9 0.3-1.2 0C91.9 103.3 91.9 103.1 91.9 102.8"/>
            </g>
          </g>
        </g>
        <g>
          <g>
            <path fill="#BF7550" d="M431.2 88.3l-58.8-8.8c-8.7 9.9-12.5 24.5-18.6 35.4 16.4 6.3-1.8 21.4-12.6 27.4 3.3 3.3 7.3 6.2 8.4 9.9 0.6 2 0 4.4-2.4 6.6 -0.4 0.4-0.2 1 0.3 1.1 4 0.8 9.3 0.8 13.2 1.5 5.4-0.5 2.4 2.7 0.9 2.7 -3.7 1.1-8.4 1.5-12.1 1 4.1 9.4 5.3 11.7-0.6 20.2 10.7 2.7 18.7 4.2 26.4 2 -0.7 2.7-1.4 13.3-2.3 14.1 0.6 1.6-0.5 3 0.2 4.6 8.1 2.4 27.4 5.9 31.5 5.4 0-13.3 6.2-30.2 12.9-44.9 0.3-0.1 0.5-0.3 0.7-0.4 9.5-6 15.2-29.9 18-39.9C440.6 111.6 446.3 98.5 431.2 88.3z"/>
            <g>
              <path fill="none" stroke="#10080D" d="M409.4 132.3c23.9-24.1 5.1 34.4-2.7 15.4"/>
              <path fill="#2D1E19" d="M391.3 98.5c0.2 5.3-0.1 10.8-1.8 15.8 2.7 1.1 8.5 1.5 10.3 3.8 2.8 3.7 0.5 15.1-0.7 19.4 1.7 1 3.9 2 5.7 2.8 2.8-5.5 7.8-18 16.6-11.4 3.8 2.8 2.6 7.7 1.4 11.1 -0.8 2.2-2.7 3.2-3.3 5.9 -0.8 3.7 0.9 8 0.8 11.7 0 3.3-0.8 6.5-1 9.9 9.3-8 19.2-16 28-24.6 7.9-7.7 13.2-18.7 13.4-29.8 0.1-5.9-4.8-14.8-7.8-19.8 6.9-11.7-2.1-19-5.4-26.4 3.4 1.4 0.5-3.9-1.8-2.7 -2.9-0.6-5.6-2.7-6.1-5.6 -0.6 3.3 1.9 5.8 4.4 7.5 -4.4-0.7-9.3 0-13.4 1.1 -1.2-4.1 2.8-7.7 5.5-10.5 -4.5 1.3-7.2 5.9-7.8 10.2 -3.8-3.4-8.8-4.5-13.9-5.1 4.2 0.6 8.5 2.6 9.9 6.7 -5.9-1.2-10.7-4.8-17.1-4.2 2.2 0.9 4.3 2 6.1 3.4 -5.1-0.6-10.5 1.2-14.9 3.6 1.1-4.9 3.8-9.9 8.6-12.3 -6.3 0.6-10.9 6.1-11.5 12.1 -4.7-3-9.5-5.8-14.9-7.2 4 1.7 7.9 3.7 10.4 7.3 -6.6-1.5-12.9-1.2-19.6-2.1 -0.2 0-0.2 0 0 0 3.1 1.4 6 3.2 8.9 5 -8.4-1.4-14.2-3.4-19.8-10.2 -0.1-0.1-0.1-0.1 0 0 1.1 4.7 4.1 8.8 8.5 10.7 -5.3-0.5-10.8-1-15.9-2.7 4.9 1.5 10.1 2 14.9 3.3 -5.6 3.4-12.1 10.3-10.6 17.1 2.8-3.5 7.1-9.5 12-9.5 -1.8 3.1-4.1 3.6-5.5 6.8 10.5-1.3 21.3 1.5 31.7-0.1 -1.7 1.4-3.8 3.9-4.4 5.2"/>
            </g>
          </g>
          <path fill="#A55F41" d="M400.4 168.7c-2.8 4-5.7 9.4-7.4 14.1 -6.1 1.4-13.9 1.6-19.4 4.6 0.6 0 1.3 0 1.9 0.1 -0.7 2-0.9 4-1.1 6.1 10.2-0.9 14.7-3 17.2-13.5"/>
          <path fill="#352520" d="M354.7 112.9c-0.4 0.6-0.8 1.2-1.3 1.8 3.1 1.7 5.1 3.9 7.4 6.6 0.2-0.5 0.5-1.6 0.7-2.1C359.3 116.9 357.3 114.6 354.7 112.9z"/>
          <g>
            <path fill="#352520" d="M363.5 117.2c-0.5 0.9-0.8 2.6-0.8 3.8 5.3-0.3 11.9-2.1 16.9-3.8 1.9 2.5 2.4 5.7 3.4 8.5 0.1-0.1 0.9-0.7 0.9-0.7 -1.1-3.5-2.4-7-3.5-10.4 -5.5 1.9-14.3 3.2-18 2.9"/>
            <path fill="none" stroke="#000000" d="M368.3 123.2c4 1.2 7.3 5 10.3 7.5"/>
            <path fill="none" stroke="#000000" d="M371.3 125.1c-1.6 1.6-1.5 3.7 0.3 5.3"/>
            <path fill="none" stroke="#000000" stroke-width="2" d="M371.9 125.6c-0.2 1.5-0.5 3-0.7 4.5"/>
            <path fill="none" stroke="#000000" d="M368.7 131c2.1-0.2 4.3-0.6 6.4-1"/>
          </g>
        </g>
      </g>
    </g>
    <path fill="none" stroke="#A55F41" stroke-miterlimit="10" d="M360.2 173.2c2.7-0.3 7.7 0.3 9.6-1.2 1.6-1.2 1.1-7.5-0.5-12.2"/>
    <polygon fill="#126433" points="374 205.9 404.9 211.2 405.7 214.7 367.6 209.7 369.6 202.3 373.4 201.3 "/>
    <path fill="none" stroke="#A55F41" stroke-miterlimit="10" d="M350.4 149.9c0.9 0 1.9 1.7 4 0.5 0.6-0.4 3.1-3 0.5-4.1"/>
    <path fill="#FFFFFF" d="M349.5 217.4c1.3 0.5 2.4 1.1 3.4 1.8 1.1 0.7 2.1 1.4 3 2.2 1 0.8 1.9 1.6 2.7 2.5 0.8 0.9 1.5 2 2.2 3.1l1.7 2.5 -2.4-0.4c-2.7-0.5-5.4-0.2-7.9 0.7 -1.3 0.4-2.5 1-3.8 1.4l-3.8 1.1c-2.5 0.8-5 1.4-7.4 2 -1.2 0.3-2.4 0.7-3.5 1.1 -1.1 0.5-2.1 0.9-2.8 2.1l-0.4 0c-0.2-0.7-0.1-1.6 0.3-2.3 0.3-0.7 0.8-1.4 1.3-1.9 1.1-1.1 2.3-1.9 3.6-2.6 2.5-1.4 5.2-2.2 7.9-2.5 1.4-0.2 2.7-0.4 4.1-0.4 1.4-0.1 2.8 0 4.1 0.1 2.7 0.1 5.4-0.2 8-1.1l-0.7 2.1c-1.1-0.7-2.2-1.3-3.2-2.1 -1-0.8-1.8-1.7-2.6-2.6 -0.8-0.9-1.6-1.9-2.3-3 -0.7-1.1-1.4-2.1-1.9-3.4L349.5 217.4z"/>
    <polygon fill="#931B1D" points="287.4 278.1 290.8 278.3 310.7 330.8 303.3 331.4 "/>
  </g>
</svg>
