<svg xmlns="http://www.w3.org/2000/svg" viewBox="0 0 372.8 386.6"><path fill="#A7573F" d="M354.9 145.6c-1.4-2.6-3 0.5-3 0.5s-5.5 11.2-6.9 11.1c-0.5 0-1.2-1-1.2-1s8.5-12.2 7.5-17.7c0 0-1.7-3.3-3.4 1.3 -1.7 4.6-7.1 14.1-7.1 14.1l-1.3-0.8c0 0 8.9-16.9 6.8-19.9 -2.1-3-4.7 3.1-4.7 3.1s-3.1 10.3-6 14.5l-1.8 0.1c0 0 5.5-13.9 4.6-16.8 -0.9-2.9-2.5-3.2-3.2-1.4 -0.7 1.7-3.6 15-5.4 16.7 -0.8 0.8-4.9 5.7-5.9 7.3 -1.6 2.3-3.6-0.3-5.3-4.1 0-0.1 0-0.1-0.1-0.2 -2.2-5.5-7.2-0.9-7.2-0.9s-2.1 2.3 0 3.5c1.3 0.7 2-0.2 3 0.9 0.9 1.1 1.2 2.9 2 3.6 0.8 0.7 1 4.8 1.2 5.9 0.5 2.6 1.3 3.5 2 4.9 0.2 0.4 1.1 4 1.2 4.4 0.3 1.3 0.5 1.3 1.4 1.9l-53 54.4c-7.8-14.3-15.5-23.6-16.5-25.4l-39.1 28.7c0 0 17.5 25.3 36.1 33.1 8.2 8.4 19.7 13.8 19.7 13.8 39.3-2.3 55.6-77.4 59.7-100.9 0.1 0 0.3-0.1 0.4-0.1 1.9-0.4 4.8-1.7 7.6-5.5 4.8-6.4 9.8-13.3 9.8-13.3S356.2 148.2 354.9 145.6z"/><path fill="#CF9B47" d="M298 108.6c-22.6 0-40.9-18.4-40.9-41 0-22.6 18.4-40.9 41-40.9 22.6 0 40.9 18.4 40.9 41C338.9 90.3 320.6 108.6 298 108.6"/><polygon fill="#0D1934" points="316.1 68.5 306 54.4 289.4 59.3 289.4 77 304.9 83 "/><path fill="#0D1934" d="M274.2 33.9l6.2 2.5 -2 17L261.8 58l-3-3.9C258.9 54.1 264.3 38.8 274.2 33.9"/><path fill="#0D1934" d="M301.1 26.3c0 0 17.2 2 24.6 10.9l-16.3 6.7 -10.7-13L301.1 26.3z"/><path fill="#0D1934" d="M337.5 54.4L327 68.7l9.6 12.8C336.5 81.5 341.3 72.3 337.5 54.4"/><path fill="#0D1934" d="M325.1 99.4l-15.4-4 -8.9 13C300.8 108.4 311 109.3 325.1 99.4"/><path fill="#0D1934" d="M278.2 85.4l-19.4-5.3c0 0 3.3 16.6 19.7 22.7L278.2 85.4z"/><path fill="#0D1934" d="M315.1 69c0-0.5 0.4-1 1-1l10.8-0.3c0.5 0 1 0.4 1 1 0 0.6-0.4 1-1 1L316.2 70C315.6 70 315.2 69.6 315.1 69L315.1 69z"/><path fill="#0D1934" d="M305 54.4c0-0.1 0-0.2 0-0.3l3.5-10.5c0.2-0.5 0.7-0.8 1.2-0.6 0.5 0.2 0.8 0.7 0.6 1.2l-3.5 10.5c-0.2 0.5-0.7 0.8-1.2 0.6C305.2 55.2 305 54.8 305 54.4"/><path fill="#0D1934" d="M304.8 82.2c0-0.4 0.3-0.8 0.7-0.9 0.5-0.2 1.1 0.1 1.2 0.7l3.9 13.3c0.2 0.5-0.1 1.1-0.7 1.2 -0.5 0.2-1.1-0.1-1.2-0.7l-3.9-13.3C304.8 82.3 304.8 82.3 304.8 82.2"/><path fill="#0D1934" d="M277.4 53.4c0-0.2 0-0.3 0.1-0.5 0.3-0.5 0.9-0.7 1.3-0.4l11.1 5.9c0.5 0.3 0.7 0.9 0.4 1.3 -0.3 0.5-0.9 0.7-1.3 0.4l-11.1-5.9C277.6 54.1 277.4 53.7 277.4 53.4"/><path fill="#0D1934" d="M279.4 36.4c0-0.4 0.2-0.7 0.6-0.9 6.1-3 12.4-4.9 18.7-5.6 0.5-0.1 1 0.3 1.1 0.9 0.1 0.5-0.3 1-0.9 1.1 -6.1 0.7-12.1 2.5-18.1 5.4 -0.5 0.2-1.1 0-1.3-0.5C279.4 36.7 279.4 36.5 279.4 36.4"/><path fill="#0D1934" d="M324 37.2c0-0.2 0.1-0.5 0.3-0.7 0.4-0.4 1-0.4 1.4-0.1 0.3 0.3 8.2 7.5 12.1 18.7 0.2 0.5-0.1 1.1-0.6 1.3 -0.5 0.2-1.1-0.1-1.3-0.6C332.1 45 324.4 38 324.3 37.9 324.1 37.7 324 37.4 324 37.2"/><path fill="#0D1934" d="M259.6 80.7L259.6 80.7l0.8-23.7c0-0.5 0.5-1 1-1 0.5 0 0.9 0.5 1 1l-0.8 23.7c0 0.5-0.5 1-1 1C260 81.7 259.6 81.2 259.6 80.7"/><path fill="#0D1934" d="M272.8 99.3c0-0.3 0.1-0.6 0.3-0.7 0.4-0.4 1-0.3 1.4 0.1 7.6 8.8 24.3 8.4 26.6 8 0.2-0.1 0.5-0.2 0.7-0.1 0.4 0.1 0.7 0.5 0.8 0.9 0 0.5-0.2 0.8-0.6 1 -1 0.4-20.1 1.7-29-8.6C272.9 99.7 272.8 99.5 272.8 99.3"/><path fill="#0D1934" d="M276.5 85.7c0-0.3 0.1-0.6 0.4-0.8l11.9-8.7c0.4-0.3 1.1-0.2 1.4 0.2 0.3 0.4 0.2 1.1-0.2 1.4l-11.9 8.7c-0.4 0.3-1.1 0.2-1.4-0.2C276.6 86.1 276.5 85.9 276.5 85.7"/><path fill="#0D1934" d="M323.3 99.2c0-0.2 0.1-0.5 0.3-0.7 3.8-4.2 8.6-10.1 11.5-18 0.2-0.5 0.8-0.8 1.3-0.6 0.5 0.2 0.8 0.8 0.6 1.3 -3 8.2-8 14.2-11.9 18.6 -0.4 0.4-1 0.4-1.4 0.1C323.4 99.7 323.3 99.5 323.3 99.2"/><path fill="#A7573F" d="M193.6 370.4l-28.5-17.3c-15.1-9.2-34.5-6.9-47.1 5.4L35.4 439c-0.2-6.9-2.2-21.4-13.8-30.9C6 395.4-20.2 388.9-40.6 372.3c-8.5-6.9-15.2-12.6-20.1-16.9 -5.5-4.9-14.1-3.9-18.3 2.2l-4.7 6.7 11.2 1.9 86.9 97.5c0 0 6.8 17.8 21.9 16.5 0.2 0 0.3-0.1 0.5-0.1 0.6 0.1 1.3 0.1 1.9-0.1 9.2-2.6 21.8-8.6 21.8-8.6 80.6-8.7 124.1-69.8 135.9-90.5C198.4 377.2 197.2 372.6 193.6 370.4zM228.9 370.4c0 0-33.2-38.6-54.9-4.4 -16.6 26.1-39.1 110.4-48.7 148.4 -3.4-4.6-14.2-17.4-30.7-18.1 -20.2-0.9-45.1 9.6-71.3 8.5 -10.9-0.5-19.7-1.1-26.2-1.6 -7.4-0.6-13.6 5.3-13.4 12.7l0.3 8.2 10.1-5.2 127.9 26.2c0 0 15.8 10.6 27.1 1.9 0.3-0.2 0.6-0.4 0.9-0.7 0.8-0.7 1.4-1.4 1.9-2.3 5.9-7.1 11.8-16.7 11.8-16.7C241 465.4 229.7 367.3 228.9 370.4zM53.2 215.4c0 0-28.1 28.2-32.2 41.5 -36 8.9-88.2 48.5-88.4 48.7 0 0-0.1 0-0.1 0 -1.6-0.3-4.3-0.2-7.7 1.8 -5.8 3.5-11.5 8.1-11.5 8.1s-11.2 8.4-11 10.8c0.3 2.4 2.5 0.5 2.5 0.5s7.3-7.6 8.4-7.1c0.1 0 0.1 0 0.2 0 -1.4 1-10.1 7.7-11 12 0 0 0.3 3.1 3.1 0.1 3-3.3 2.6-3.8 9.7-9.4l0.2 0.1c0 0-12.3 10.3-11.6 13.4 0.7 3 4.7-1 4.7-1s5.7-7 9.2-9.4v0.1c0 0-7.9 9.3-8.1 11.9 -0.2 2.6 2.8 1.5 3.9 0.3 1.1-1.2 6.3-9.7 8.2-10.5 0.9-0.4 6.7-3.4 7-1.8 0.4 2.2-2.3 3.1-2.2 6.6 0 0 0 0.1 0 0.1 0 5 3.9 2.5 3.9 2.5 0.3-0.1 0.5-0.8 0.4-2.7 -0.1-1.2 4-8.4 4.2-9.4 0.5-2.2 2.2-4.9 2.1-6.2 0-0.4 0.4-3.5 0.5-3.8 0-0.1 0-0.3 0.1-0.4 10.9-2 94.7-18 103.8-27.9 0.6-0.7 1.1-1.4 1.4-2.2 6.7-3.7 22.9-13.2 43.7-28.9C86.6 253.2 97.7 241.2 53.2 215.4z"/><path fill="#0D8DCC" d="M222 248.3c-9.3-3.7-47.2-53.6-30.2-81.4 1.9-3.2 27.6-8.7 45.2 15.6 10.3 14.3 20 30.2 20 30.2L222 248.3z"/><polygon fill="#191918" points="254.6 208.6 217.8 244.3 221.2 249.7 257.2 212.6 "/><path fill="#B6A39D" d="M-6 518.9l-10.1 5.2 -0.4-13.9c-0.1-4.4 3.6-7.9 8-7.5 6.7 0.6 17.4 1.5 31.8 2.1 26.2 1.1 51.1-9.4 71.3-8.5 9.5 0.4 17.1 4.8 22.5 9.4l-7.7 36.8L-6 518.9z"/><path fill="#83B0BA" d="M116.4 543.9l-7-1.4 7.7-36.8c3.1 2.6 5.5 5.3 7.1 7.2l-6 30.6L116.4 543.9z"/><path fill="#CB9B59" d="M-40.1 540.6l-0.4 0.6c-0.3 0.5-0.1 1 0.3 1.2l1.4 0.6c0.4 0.2 1 0 1.3-0.5l0.4-0.6c0.3-0.5 0.1-1-0.3-1.2l-1.4-0.6C-39.2 539.9-39.8 540.1-40.1 540.6"/><path fill="#CB9B59" d="M-35.9 533.7l-0.4 0.6c-0.3 0.5-0.1 1 0.3 1.2l1.4 0.6c0.4 0.2 1 0 1.3-0.5l0.4-0.6c0.3-0.5 0.1-1-0.3-1.2l-1.4-0.6C-35 533-35.6 533.3-35.9 533.7"/><path fill="#CB9B59" d="M-30.8 525.4l-0.4 0.6c-0.3 0.5-0.1 1 0.3 1.2l1.4 0.6c0.4 0.2 1 0 1.3-0.5l0.4-0.6c0.3-0.5 0.1-1-0.3-1.2l-1.4-0.6C-29.9 524.7-30.5 524.9-30.8 525.4"/><path fill="#CB9B59" d="M-26.7 518.6l-0.4 0.6c-0.3 0.5-0.1 1 0.3 1.2l1.4 0.6c0.4 0.2 1 0 1.3-0.5l0.4-0.6c0.3-0.5 0.1-1-0.3-1.2l-1.4-0.6C-25.8 517.9-26.4 518.2-26.7 518.6"/><path fill="#CB9B59" d="M-18.4 505l-0.4 0.6c-0.3 0.5-0.1 1 0.3 1.2l1.4 0.6c0.4 0.2 1 0 1.3-0.5l0.4-0.6c0.3-0.5 0.1-1-0.3-1.2l-1.4-0.6C-17.5 504.3-18.1 504.6-18.4 505"/><path fill="#CB9B59" d="M-15.1 499.5l-0.4 0.6c-0.3 0.5-0.1 1 0.3 1.2l1.4 0.6c0.4 0.2 1 0 1.3-0.5l0.4-0.6c0.3-0.5 0.1-1-0.3-1.2l-1.4-0.6C-14.3 498.8-14.9 499-15.1 499.5"/><path fill="#442C12" d="M4.6 503.9c0 0-0.7 2.8-6.4 4.1l-3 5.1c0 0-0.4 1.8 3.5 3.8 3.9 2 2.1 4.3 2.1 4.3s-6.8-0.5-12.5 5.5c-5.7 6-15.7 15.7-15.7 15.7s-6 4.5-11.8 1.5l15.9-26 1.4-2.2 2.7-4.4 1.4-2.2 2.5-4.1 1.4-2.2 1.8-3.2L4.6 503.9z"/><polygon fill="#CB9B59" points="-22.5 530.5 -25.9 522.1 -24.6 519.9 -20.7 529.6 "/><polygon fill="#CB9B59" points="-18.1 525 -21.9 515.5 -20.5 513.2 -16.2 524.1 "/><polygon fill="#CB9B59" points="-13.9 519.6 -18.1 509.1 -16.7 506.9 -12 518.7 "/><path fill="#CB9B59" d="M-22.5 532.9c-0.4-0.2-0.8 0-1.1 0.4 -0.2 0.4-0.1 0.8 0.2 1 0.4 0.2 0.8 0 1.1-0.4C-22 533.5-22.1 533.1-22.5 532.9"/><path fill="#CB9B59" d="M-18.7 528.6c-0.4-0.2-0.8 0-1.1 0.4 -0.2 0.4-0.1 0.8 0.2 1 0.4 0.2 0.8 0 1.1-0.4C-18.2 529.2-18.3 528.8-18.7 528.6"/><path fill="#CB9B59" d="M-14.8 524.2c-0.4-0.2-0.8 0-1.1 0.4 -0.2 0.4-0.1 0.8 0.2 1 0.4 0.2 0.8 0 1.1-0.4C-14.3 524.7-14.4 524.3-14.8 524.2"/><path fill="#CB9B59" d="M-11.2 520.3c-0.4-0.2-0.8 0-1.1 0.4 -0.2 0.4-0.1 0.8 0.2 1 0.4 0.2 0.8 0 1.1-0.4C-10.7 520.9-10.8 520.5-11.2 520.3"/><path fill="#CB9B59" d="M-23.3 533.4c0 0.1-0.1 0.1-0.1 0.2 0 0.2 0.1 0.4 0.4 0.4l4.7 0c0.2 0 0.3-0.1 0.4-0.2 0.1-0.1 0.2-0.3 0.1-0.4l-0.8-3.6 4.2 0.1c0.2 0 0.3-0.1 0.4-0.2 0.1-0.1 0.2-0.3 0.1-0.4l-0.8-3.8 3.9 0.6c0.2 0 0.3 0 0.5-0.2 0.1-0.1 0.2-0.3 0.2-0.4l-1-4.7c0-0.2-0.3-0.4-0.6-0.3 -0.3 0.1-0.4 0.3-0.4 0.6l0.9 4 -3.9-0.6c-0.2 0-0.3 0-0.5 0.2 -0.1 0.1-0.2 0.3-0.2 0.4l0.8 3.9 -4.2-0.1c-0.2 0-0.3 0.1-0.4 0.2 -0.1 0.1-0.2 0.3-0.1 0.4l0.8 3.6 -4 0C-23 533.1-23.2 533.3-23.3 533.4"/><path fill="#191918" d="M234.4 330.5c0 0 10.9 66.5-22.5 138.6l-76-16.3 28.7-83.8 -6.9-42.4L234.4 330.5z"/><path fill="#179BD7" d="M181.8 164l15.8-0.8c4-0.2 8.3 0.8 10.5 4 15.4 22.6 22 40.1 22 40.1 8.5 35.7 5.7 125.4 5.7 125.4l-87.1-3.2 -17.6-61c-6.2-4.8-57-55.3-33.2-87.4l7.7-3.1 46-12.1L181.8 164z"/><path fill="#15A5DF" d="M126.5 194.4c-3.7-8.6-12.4-14-21.8-14 -6.5 0-14.7 1.6-23.7 7.3 -26.4 16.7-29 29.6-29 29.6l33.4 36.6c0 0 53-19 42-56.9C127.5 197 127.3 196.1 126.5 194.4"/><path fill="#D3C8C5" d="M-72.5 366.1l-11.2-1.8 8-11.4c2.5-3.6 7.6-4.2 10.8-1.2 5 4.5 13 11.6 24.3 20.7 20.4 16.6 46.6 23 62.2 35.8 7.4 6 10.8 14.1 12.4 21L5.9 454.1 -72.5 366.1z"/><path fill="#83B0BA" d="M10.7 459.4l-4.7-5.3 28.2-24.9c0.9 4 1.3 7.5 1.3 10L12.3 460 10.7 459.4z"/><path fill="#83B0BA" d="M30.8 444.1c0 0-33.1-7.5-40.1-40.5C-9.2 403.6-13.3 434.6 30.8 444.1"/><path fill="#CB9B59" d="M-112.7 363.2l-0.7 0.3c-0.5 0.2-0.7 0.7-0.5 1.1l0.8 1.3c0.2 0.4 0.8 0.6 1.3 0.4l0.7-0.3c0.5-0.2 0.7-0.7 0.5-1.1l-0.8-1.3C-111.6 363.1-112.2 363-112.7 363.2"/><path fill="#CB9B59" d="M-105.3 360.2l-0.7 0.3c-0.5 0.2-0.7 0.7-0.5 1.1l0.8 1.3c0.2 0.4 0.8 0.6 1.3 0.4l0.7-0.3c0.5-0.2 0.7-0.7 0.5-1.1l-0.8-1.3C-104.2 360.1-104.8 360-105.3 360.2"/><path fill="#CB9B59" d="M-96.2 356.5l-0.7 0.3c-0.5 0.2-0.7 0.7-0.5 1.1l0.8 1.3c0.2 0.4 0.8 0.6 1.3 0.4l0.7-0.3c0.5-0.2 0.7-0.7 0.5-1.1l-0.8-1.3C-95.1 356.5-95.7 356.3-96.2 356.5"/><path fill="#CB9B59" d="M-88.9 353.6l-0.7 0.3c-0.5 0.2-0.7 0.7-0.5 1.1l0.8 1.3c0.2 0.4 0.8 0.6 1.3 0.4l0.7-0.3c0.5-0.2 0.7-0.7 0.5-1.1l-0.8-1.3C-87.8 353.6-88.4 353.4-88.9 353.6"/><path fill="#CB9B59" d="M-74.1 347.6l-0.7 0.3c-0.5 0.2-0.7 0.7-0.5 1.1l0.8 1.3c0.2 0.4 0.8 0.6 1.3 0.4l0.7-0.3c0.5-0.2 0.7-0.7 0.5-1.1l-0.8-1.3C-73 347.6-73.6 347.4-74.1 347.6"/><path fill="#CB9B59" d="M-68.2 345.1l-0.7 0.3c-0.5 0.2-0.7 0.7-0.5 1.1l0.8 1.3c0.2 0.4 0.8 0.6 1.3 0.4l0.7-0.3c0.5-0.2 0.7-0.7 0.5-1.1l-0.8-1.3C-67.1 345.1-67.7 344.9-68.2 345.1"/><path fill="#442C12" d="M-55 360.5c0 0-2.3 1.9-7.6-0.5l-5.5 2.3c0 0-1.4 1.2 0.5 5.1 1.9 3.9-0.8 4.7-0.8 4.7s-5.2-4.5-13.3-3.1c-8.1 1.4-21.9 3.2-21.9 3.2s-7.5 0-10.4-5.9l28.3-11.4 2.4-1 4.8-1.9 2.4-1 4.4-1.8 2.4-1 3.4-1.5L-55 360.5z"/><polygon fill="#CB9B59" points="-92.7 365.5 -90.4 356.8 -87.9 355.8 -90.7 366 "/><polygon fill="#CB9B59" points="-85.8 363.8 -83.2 353.9 -80.7 352.9 -83.8 364.2 "/><polygon fill="#CB9B59" points="-79.2 362 -76.3 351.1 -73.9 350.1 -77.2 362.4 "/><path fill="#CB9B59" d="M-94.1 367.5c-0.2-0.3-0.7-0.5-1.1-0.3 -0.4 0.2-0.6 0.6-0.4 0.9 0.2 0.3 0.7 0.5 1.1 0.3C-94 368.3-93.9 367.9-94.1 367.5"/><path fill="#CB9B59" d="M-88.4 366.4c-0.2-0.3-0.7-0.5-1.1-0.3 -0.4 0.2-0.6 0.6-0.4 0.9 0.2 0.3 0.7 0.5 1.1 0.3C-88.4 367.1-88.3 366.7-88.4 366.4"/><path fill="#CB9B59" d="M-82.7 365.1c-0.2-0.3-0.7-0.5-1.1-0.3 -0.4 0.2-0.6 0.6-0.4 0.9 0.2 0.3 0.7 0.5 1.1 0.3C-82.6 365.9-82.5 365.5-82.7 365.1"/><path fill="#CB9B59" d="M-77.5 364.2c-0.2-0.3-0.7-0.5-1.1-0.3 -0.4 0.2-0.6 0.6-0.4 0.9 0.2 0.3 0.7 0.5 1.1 0.3C-77.4 365-77.3 364.6-77.5 364.2"/><path fill="#CB9B59" d="M-95 367.5c-0.1 0-0.1 0.1-0.2 0.1 -0.2 0.2-0.2 0.4 0 0.6l3.8 2.8c0.1 0.1 0.3 0.1 0.5 0.1 0.2 0 0.3-0.1 0.3-0.3l1.6-3.4 3.3 2.6c0.1 0.1 0.3 0.1 0.5 0.1 0.2 0 0.3-0.1 0.4-0.3l1.6-3.5 2.8 2.8c0.1 0.1 0.3 0.2 0.5 0.1 0.2 0 0.3-0.1 0.4-0.3l2-4.4c0.1-0.2 0-0.5-0.3-0.5 -0.3-0.1-0.6 0-0.6 0.2l-1.7 3.7 -2.8-2.8c-0.1-0.1-0.3-0.2-0.5-0.1 -0.2 0-0.3 0.1-0.4 0.3l-1.7 3.6 -3.3-2.6c-0.1-0.1-0.3-0.1-0.5-0.1 -0.2 0-0.3 0.1-0.4 0.3l-1.6 3.4 -3.2-2.4C-94.6 367.4-94.8 367.4-95 367.5"/><path fill="#242424" d="M156.2 329.1c0 0-22.8 15.2-24.1 16.5C96.4 366.3 67 399.4 67 399.4l43.9 60c0 0 45.6-24.7 70.1-53 0 0 13.8-6.6 18.2-14 3-5 6.1-17.6 8.5-29.7 2.8-14.4 4.8-28.2 4.8-28.2L156.2 329.1z"/><path fill="#191918" d="M50.8 217.8l33 37.7 4.1-1.6 -34.8-40.8c-0.8 1.3-1.5 2.8-2.1 4.2L50.8 217.8z"/><polygon fill="#FFFFFF" points="117.4 174.9 157.9 329.8 168.4 330.2 127.1 172.4 "/><polygon fill="#FFFFFF" points="145 177.7 141.9 177.4 182 330.7 192.6 331.5 152.4 178 149.7 178 "/><polygon fill="#FFFFFF" points="163.8 175.3 205.6 331.4 216.2 332.1 173.1 167.2 168 171.8 "/><polyline fill="#FFFFFF" points="236.1 325.1 194.5 163.3 182.4 164 227.5 331.9 235.8 332.5 "/><path fill="#BF7550" d="M217.5 94c-8.7-11.2-22.1-19.8-34.7-25.3 3.6-1.5 6.4-4.5 10-5.8 -14.5-12.4-34.7-16.1-49.9-27.4l-39.7 14.8c-10.2 1.7-13 10-13.6 19 -2.9 40.9 40.8 65.8 46 103.8 0.1 0 0.2-0.1 0.4-0.1l0.2 1.2 7 3.5c37.6 3.2 28.4-13 28.4-13l-1.8 0.1c-0.5-4.8-0.1-9.3-0.4-14.4 0.1 0.1 1 4.1 1.2 4.8 8.2 3 17.9 6.1 24.4-3.4 5.1-7.3-3.2-19.1 3.1-27.5 -5 0-9.9-1.2-15.2-1.2 0.1-0.3-0.1-1.4-0.3-1.8 5.4-0.5 10.9-0.2 16.4-0.8 -0.8-7.7 2-17.8 7.3-23.9 3.1 0.5 6.2 1 9.3 1.1C217.5 97.9 218.8 95.6 217.5 94z"/><path fill="#482412" d="M115.7 58.7c2 11 8.6 21.9 17.6 28.5 -2.3 0.3-4.7 2.3-7.2 2.6 3.1 5.1 6.6 10.8 10.8 15.2 -1.4 1.5-5.7 4.6-7.6 5.4 -7.7-5.4-18.8-7-21.3 4.4 -2.3 10.3 10.5 19.8 16.4 26.3 -0.9 1.2-2.1 2.5-3.2 3.4 -14-21-51-34.2-54.3-60.6 -1-7.5 0.3-16.1 0.6-23.7 1.4 0.5 3.1 0.8 4.4 1.4 -2.1-3.3-3.7-7.3-5.3-10.7 23.9-21.5 51.6-33.2 83.8-37.6 12.1-1.6 32 2.5 40.3 9.3 3.9 2.9-9.7 23.2-27.6 25.2 -8.6 0.6-19.1 1.8-27.1 0.8 2.6 0.8 5.4 2.8 7.9 3.7 -9.8 1.3-22 2.5-30.5 3.8"/><path d="M130.1 139.7c-1.5 0-3.2-0.7-5.1-1.4 -0.7-0.3-1.4-0.5-2.1-0.8 -5.4-1.9-12.6-9.9-15.4-16.9 -1.6-4.1-1.8-7.7-0.4-10.5 2.1-4.1 5.3-5 7.6-5 4.9-0.1 10.5 3.7 13.1 8.7l-1.5 0.8c-2.3-4.4-7.3-7.9-11.6-7.9 0 0 0 0-0.1 0 -2.7 0-4.8 1.4-6.1 4.1 -1.4 2.9-0.5 6.6 0.5 9.1 3 7.4 10 14.4 14.5 16 0.7 0.3 1.4 0.6 2.1 0.8 2.3 0.9 4.3 1.7 5.6 1 1-0.6 1.7-2.1 2.1-4.8l1.6 0.3c-0.5 3.2-1.4 5.1-2.9 5.9C131.5 139.6 130.8 139.7 130.1 139.7z"/><path fill="#482412" d="M158.9 81.4L158 80c2.5-1.7 5.6-3.3 8.6-4.8 3.5-1.8 6.7-3.4 9.1-5.2l1 1.3c-2.5 1.9-5.8 3.6-9.3 5.4C164.4 78.2 161.3 79.8 158.9 81.4z"/><path fill="#482412" d="M159.4 81.8l-0.7-1.5c3.4-1.7 7.1-3.3 10.6-4.8 2.2-1 4.5-1.9 6.6-2.9l0.7 1.5c-2.2 1-4.4 2-6.7 2.9C166.5 78.5 162.8 80.1 159.4 81.8z"/><path fill="#482412" d="M154.8 90.8l-1.5-0.6c1.6-3.9 3.3-9.6 6.8-12.3l0.1 2.5C158.6 83.9 156.3 86.9 154.8 90.8z"/><path d="M167.2 95.7c-0.6-0.2-1.3-0.4-1.5-1 -0.1-0.1-0.1-0.3-0.1-0.4l-0.5 0.1c0-0.2-0.4-1.8-0.6-2.5l-0.4-0.2 0.3-0.8c0.1-0.3 0.5-0.7 1.1-1 0-0.1 0-0.3 0.1-0.4l0.4 0.1c0.5-0.3 1-0.4 1.3-0.3l0.7 0.2 -0.1 0.6c0.1 0.7 0.3 1.9 0.4 3.3 0.1 0.6 0.1 1.1 0.2 1.2l-0.9 0.5L167.2 95.7z"/><path fill="#924437" d="M166.9 136.5c-3.6-8.6 0.7-16.7 4.6-23.8l1.5 0.7 -0.1 0.1c-3.9 7.1-7.9 14.5-4.5 22.4L166.9 136.5z"/><path fill="#924437" d="M158.3 130.4c-0.2-2.5-0.3-5-0.3-7.5l1.6 0c0 2.4 0.1 4.9 0.3 7.3L158.3 130.4z"/><path d="M184.7 104.9c-1 0-1.9-0.4-2.6-1 -1.3-1.1-1.6-2.9-0.9-4.4 0.7-1.5 1.8-3 3.2-4.4l1.1 1.2c-1.3 1.2-2.2 2.5-2.8 3.8 -0.5 1.1 0 2 0.5 2.5 0.6 0.5 1.6 0.9 2.7 0.3 3.9-2.2 7.9-4.5 12.3-3.4l-0.4 1.6c-3.7-0.9-7.3 1.1-11 3.2C186 104.8 185.4 104.9 184.7 104.9z"/><path fill="#482412" d="M176.8 68.7c0.7 2.1 0.3 5.4 0 7.4 -0.2 0 0.1-1.6 0-1.8 -6.4 2.5-12.7 4.7-19.2 7 0 0.3 1.4-0.9 1.1-0.9 -1.1 2.8-3.5 8.3-5.4 12.1 7.4-17.1 5.4-16.4 22.2-23.3"/><path fill="#37190F" d="M169.4 152.7c-10.6-3.8-27.5-8.6-31-20.7 3 15.1 14.8 30.7 31.2 32.6 0 0 0.8-2.8-0.2-3.5"/><path fill="#4F2015" d="M199.8 108.8c-12.7 1-22.3-1.4-30 11.4 -2.7 4.5-2.4 12.1-7.3 14.1 -7.1 2.8-15.8-6.4-19.9-10.7 -3.7-3.8-8.1-8.3-9.8-13.4 -1.9 22.9 9.3 35 23.6 45.3 9.3 6.6 32.1 12.9 40.3-0.8 3.5-5.9-0.9-20.1-0.1-26.9 -11.2 1.5-19.3 6.2-16.1-9.6 5.9-0.6 15.9-2.1 19.5-1.3"/><path fill="#191918" d="M135 170.3c0 0 12.4 9.2 21.5 7.4 5.9-1.1 15-13.1 15-13.1s3.5 1.1 3 3.7c-0.6 3.3-10.4 10.2-12.8 11.4 -6.3 3.1-15.7 1-20.3-1.2 -1.7-0.8-7.4-5.6-7.4-5.6"/><polygon fill="#232323" points="162.5 227.6 156.4 202.8 154.1 206 150.8 203.6 158.3 193.4 166.5 226.6 "/><path fill="#232323" d="M184.2 224H172l-5.2-10.2 -2.1-10.6 3.8-10.1h12.8l4.7 10.7L184.2 224zM174.5 219.9h6l1.4-15.4 -3.2-7.2h-7.3l-2.4 6.3 1.8 9.2L174.5 219.9z"/></svg>