<svg xmlns="http://www.w3.org/2000/svg" xmlns:xlink="http://www.w3.org/1999/xlink" viewBox="0 0 500 334.7">
  <g>
    <radialGradient id="SVGID_1_" cx="412.6062" cy="994.5594" r="5.7496" gradientTransform="matrix(9.4511 0 0 -9.8928 -3655.8948 10146.7656)" gradientUnits="userSpaceOnUse">
      <stop offset="0" stop-color="#404041"/>
      <stop offset="0.3933" stop-color="#414142"/>
      <stop offset="0.4993" stop-color="#565658"/>
      <stop offset="0.7303" stop-color="#808184"/>
      <stop offset="1" stop-color="#D3D4D6"/>
    </radialGradient>
    <ellipse fill="url(#SVGID_1_)" cx="243.8" cy="308" rx="51.8" ry="5.9"/>
    <radialGradient id="SVGID_2_" cx="429.561" cy="989.1706" r="5.7496" gradientTransform="matrix(14.5244 0 0 -13.0645 -6010.9116 13211.0938)" gradientUnits="userSpaceOnUse">
      <stop offset="0" stop-color="#FFF8B3"/>
      <stop offset="3.932580e-02" stop-color="#FFF8B3"/>
      <stop offset="0.264" stop-color="#FFD766"/>
      <stop offset="0.8202" stop-color="#CA9B0C"/>
      <stop offset="0.8836" stop-color="#CE9F0B"/>
      <stop offset="0.9477" stop-color="#DAAB09"/>
      <stop offset="1" stop-color="#E9BB07"/>
    </radialGradient>
    <path fill="url(#SVGID_2_)" d="M238.8 306.6c-27.3-0.7-39.3-2.6-44.7-4.1 -0.6 2.5-0.8 3.4-0.8 3.4s16.4 6.2 46.2 5.4c29.8-0.8 47.5-2.3 51.4-5.4 1.3-1 2.1-1.9 2.6-2.6C288.4 304.8 274.3 307.6 238.8 306.6z"/>
    <radialGradient id="SVGID_3_" cx="435.6947" cy="992.9172" r="5.7496" fx="435.7757" fy="992.4305" gradientTransform="matrix(17.7403 0 0 -18.2284 -7502.2002 18167.4941)" gradientUnits="userSpaceOnUse">
      <stop offset="0" stop-color="#FFFFFF"/>
      <stop offset="5.617980e-03" stop-color="#FFFFFF"/>
      <stop offset="9.550560e-02" stop-color="#FFFAD1"/>
      <stop offset="0.3202" stop-color="#FFD766"/>
      <stop offset="0.8034" stop-color="#6C5200"/>
      <stop offset="0.8399" stop-color="#705500"/>
      <stop offset="0.875" stop-color="#7B5F01"/>
      <stop offset="0.9094" stop-color="#8F6F02"/>
      <stop offset="0.9434" stop-color="#AA8603"/>
      <stop offset="0.9768" stop-color="#CCA305"/>
      <stop offset="1" stop-color="#E9BB07"/>
    </radialGradient>
    <path fill="url(#SVGID_3_)" d="M297 96.9c0 28.8-23.3 52.1-52 52.1 -28.7 0-52-23.3-52-52.1 0-28.8 23.3-52.1 52-52.1C273.7 44.8 297 68.2 297 96.9z"/>
    <radialGradient id="SVGID_4_" cx="413.2543" cy="1000.3563" r="5.7496" gradientTransform="matrix(9.83 0 0 -8.842 -3834.3147 9125.6641)" gradientUnits="userSpaceOnUse">
      <stop offset="0" stop-color="#FFF8B3"/>
      <stop offset="3.932580e-02" stop-color="#FFF8B3"/>
      <stop offset="0.2472" stop-color="#FFD766"/>
      <stop offset="0.8202" stop-color="#AA8304"/>
      <stop offset="0.8816" stop-color="#AE8705"/>
      <stop offset="0.9412" stop-color="#BA9206"/>
      <stop offset="1" stop-color="#CDA409"/>
    </radialGradient>
    <path fill="url(#SVGID_4_)" d="M238.8 296.4c19.7 0 44.8-0.9 50.6-3.8 -3.1-5.2-7.2-11.8-10.5-16.9 -3.4 1.4-12.9 3.9-37.7 3 -21-0.7-30.2-1.9-34.2-2.7 -3.2 4.9-6.9 10.9-9.3 15.6l0.9 0.2C198.7 291.8 218.7 296.4 238.8 296.4z"/>
    <linearGradient id="SVGID_5_" gradientUnits="userSpaceOnUse" x1="456.7278" y1="1058.1295" x2="462.4774" y2="1058.1295" gradientTransform="matrix(4.6164 -5.4077 -5.4077 -4.6164 3807.5796 7527.0947)">
      <stop offset="0" stop-color="#FFF8B3"/>
      <stop offset="3.932580e-02" stop-color="#FFF8B3"/>
      <stop offset="0.264" stop-color="#FFD766"/>
      <stop offset="0.4296" stop-color="#FDD562"/>
      <stop offset="0.5816" stop-color="#F6CD57"/>
      <stop offset="0.7282" stop-color="#EBC145"/>
      <stop offset="0.8706" stop-color="#DCAF2B"/>
      <stop offset="1" stop-color="#CA9B0C"/>
    </linearGradient>
    <path fill="url(#SVGID_5_)" d="M237.5 189.3c0.1 0.5 0.1 1 0.2 1.4C237.6 190.3 237.6 189.8 237.5 189.3M191.7 96.6c-1.2 0-2.5 0.3-2.3 1.8 0.4 2.7-0.5 11.3 1.3 14 1.7 2.7 4.3 7 4.3 8.5 0 1.6-0.8 6.2 0 7.4 0.9 1.1 9.5 30.3 10.4 41.1 0.6 8 3.1 16.1 6.6 24.1l0 0 0 0c3.4 4.2 7.5 7.6 12.8 9.7 0.4 0.2 0.8 0.3 1.2 0.4 2.4 0.8 4.3 1.2 5.8 1.2 0.3 0 0.7 0 1-0.1 0 0 0 0 0 0 0.1 0 0.3 0 0.4-0.1 0 0 0 0 0 0 0.1 0 0.3-0.1 0.4-0.1 0 0 0 0 0 0 1.7-0.4 2.7-1.4 3.4-2.9 0 0 0 0 0 0 0.1-0.1 0.1-0.2 0.1-0.3 0 0 0 0 0-0.1 0-0.1 0.1-0.2 0.1-0.3 0 0 0 0 0-0.1 0-0.1 0.1-0.2 0.1-0.4 0 0 0 0 0 0 0.1-0.4 0.2-0.8 0.3-1.2 0 0 0 0 0 0 0-0.1 0-0.2 0.1-0.3 0 0 0-0.1 0-0.1 0-0.1 0-0.2 0-0.3 0-0.1 0-0.1 0-0.2 0-0.1 0-0.2 0-0.3 0-0.1 0-0.1 0-0.2 0-0.1 0-0.2 0-0.4 0 0 0-0.1 0-0.1 0.1-1.8 0-3.9-0.3-5.9 -2.3 3.6-4 5.2-4.4 5.2 -0.2 0 0-0.6 1-1.6 1.2-1.4 2.2-4.1 2.9-7.6 0-0.3-0.1-0.6-0.1-1 -0.4-3.2-0.7-6.3-0.2-8.5 0.2-0.9 0.2-1.8 0.2-2.7 0-9.1-6.9-20.6-12.3-27.6 -3.3-4.2-7-11.1-9.8-16.6 -0.4 0.1-0.9 0.1-1.3 0.1 -6.7 0-14.6-5.9-20-34.4C193.7 96.8 192.7 96.6 191.7 96.6"/>
    <linearGradient id="SVGID_6_" gradientUnits="userSpaceOnUse" x1="438.6838" y1="982.6628" x2="444.4334" y2="982.6628" gradientTransform="matrix(21.8579 1.8215 1.8215 -21.8579 -11177.7275 20851.1328)">
      <stop offset="0" stop-color="#FFF8B3"/>
      <stop offset="3.932580e-02" stop-color="#FFF8B3"/>
      <stop offset="0.264" stop-color="#FFD766"/>
      <stop offset="0.4831" stop-color="#A37F03"/>
      <stop offset="0.5194" stop-color="#AB8603"/>
      <stop offset="0.5765" stop-color="#C29905"/>
      <stop offset="0.6469" stop-color="#E6B907"/>
      <stop offset="0.6517" stop-color="#E9BB07"/>
      <stop offset="1" stop-color="#E9BB07"/>
    </linearGradient>
    <path fill="url(#SVGID_6_)" d="M261 80.4c-1.3 0 0.2 1.8-2 4.1 -2.6 2.7-1.3 5.8-1.3 5.8l-2.7 3c-0.2 6.1-0.5 15.9-1.2 31.2 -1.9 38.2-10.6 58.5-16 67.2 0.2 2.1 0.3 4.1 0.2 6 0 0 0 0.1 0 0.1 0 0.1 0 0.2 0 0.4 0 0.1 0 0.1 0 0.2 0 0.1 0 0.2 0 0.3 0 0.1 0 0.1 0 0.2 0 0.1 0 0.2 0 0.3 0 0.1 0 0.1 0 0.1 0 0.1 0 0.2-0.1 0.3 0 0 0 0 0 0 -0.1 0.4-0.2 0.8-0.3 1.2 0 0 0 0 0 0 0 0.1-0.1 0.2-0.1 0.4 0 0 0 0 0 0.1 0 0.1-0.1 0.2-0.1 0.3 0 0 0 0 0 0.1 0 0.1-0.1 0.2-0.1 0.3 0 0 0 0 0 0 -0.7 1.4-1.7 2.4-3.4 2.9 0 0 0 0 0 0 -0.1 0-0.3 0.1-0.4 0.1 0 0 0 0 0 0 -0.1 0-0.3 0-0.4 0.1 0 0 0 0 0 0 -0.3 0-0.6 0.1-1 0.1 -1.5 0-3.5-0.4-5.8-1.2 -0.4-0.1-0.8-0.3-1.2-0.4 -5.3-2.1-9.4-5.5-12.8-9.7l0 0c1.2 2.8 2.6 5.7 4.1 8.5 5.6 10.5 8.2 27.2 5.6 39.2 -2.6 12.1-9.1 26-9.1 26l-0.5 0.6c5.1 0.5 18.1 1.7 28.9 1.7 11.4 0 25.5-0.5 32-2.3 -3.1-4.1-3.5-7.4-3.5-7.4s1.3-4.3-1.3-5.8c-2.6-1.6 1.3-5.4-0.4-7 -1.8-1.6-3-5.4-2.2-8.2 0.9-2.7 0-28.4 8.2-41.2 8.2-12.8 11.2-29.1 12.5-34.6 1.3-5.4 4.8-35.3 9.1-40 4.3-4.7 7.3-28.4 3.9-31.5 -1.4-1.2-2.3-1.6-2.9-1.6 -0.9 0-1 0.8-1 0.8s-3.5 25.6-6.9 26.8c-0.7 0.2-1.3 0.3-1.8 0.3 -2.1 0-3-1.5-3-1.5s-1.3-1-3.6-1c-0.9 0-2 0.2-3.3 0.6 -4.3 1.6-5.2 3.1-6.1 4.7 -0.8 1.6-3 3.5-3 3.5l-2.6-22.5 -0.4-7.3c0 0 2.1-3.5 1.2-4.7 -0.8-1.1-1.2-8.5-4.3-9.3C261.5 80.4 261.2 80.4 261 80.4"/>
    <linearGradient id="SVGID_7_" gradientUnits="userSpaceOnUse" x1="345.8375" y1="1058.9753" x2="351.586" y2="1058.9753" gradientTransform="matrix(4.2974 0 0 -4.2974 -1271.2881 4708.7026)">
      <stop offset="0" stop-color="#FFF8B3"/>
      <stop offset="3.932580e-02" stop-color="#FFF8B3"/>
      <stop offset="0.264" stop-color="#FFD766"/>
      <stop offset="0.4296" stop-color="#FDD562"/>
      <stop offset="0.5816" stop-color="#F6CD57"/>
      <stop offset="0.7282" stop-color="#EBC145"/>
      <stop offset="0.8706" stop-color="#DCAF2B"/>
      <stop offset="1" stop-color="#CA9B0C"/>
    </linearGradient>
    <path fill="url(#SVGID_7_)" d="M225.6 128.3l-1.2 0.1c-1.8 0-5.3 2.4-9.4 2.8 2.7 5.5 6.5 12.4 9.8 16.6 5.5 7 12.4 18.5 12.3 27.6 0 0.9-0.1 1.9-0.2 2.7 -0.4 2.2-0.2 5.2 0.2 8.5 0 0.3 0.1 0.6 0.1 0.9l0 0 0 0c2.9-13.6 2.6-38.9 2.2-42.8 -0.4-5.1-1.3-9.3-7.3-12.4C229.7 130.9 227.4 129.5 225.6 128.3"/>
    <linearGradient id="SVGID_8_" gradientUnits="userSpaceOnUse" x1="407.4501" y1="1009.7643" x2="413.1997" y2="1009.7643" gradientTransform="matrix(8.8617 -0.1547 -0.1547 -8.8617 -3237.6426 9201.127)">
      <stop offset="0" stop-color="#FFFFFF"/>
      <stop offset="0.264" stop-color="#FFFFFF"/>
      <stop offset="0.4901" stop-color="#FBFBFC"/>
      <stop offset="0.6978" stop-color="#F0F1F1"/>
      <stop offset="0.8976" stop-color="#DEDEE0"/>
      <stop offset="1" stop-color="#D1D2D4"/>
    </linearGradient>
    <path fill="url(#SVGID_8_)" d="M237.7 190.8c0 0.3 0.1 0.6 0.1 0.8 0 0 0 0 0 0C237.7 191.3 237.7 191.1 237.7 190.8M237.3 187.5L237.3 187.5 237.3 187.5C237.3 187.5 237.3 187.5 237.3 187.5c0.1 0.6 0.1 1.2 0.2 1.8C237.5 188.7 237.4 188.1 237.3 187.5"/>
    <g>
      <defs>
        <path id="SVGID_9_" d="M237.3 187.5c-0.8 3.5-1.7 6.2-2.9 7.6 -0.9 1-1.2 1.6-1 1.6 0.4 0 2.1-1.6 4.4-5.2 0-0.3-0.1-0.5-0.1-0.8 -0.1-0.5-0.1-1-0.2-1.4C237.5 188.7 237.4 188.1 237.3 187.5"/>
      </defs>
      <clipPath id="SVGID_10_">
        <use xlink:href="#SVGID_9_" overflow="visible"/>
      </clipPath>
      <g transform="matrix(1 0 0 1 0 -1.525879e-05)" clip-path="url(#SVGID_10_)">
        <image overflow="visible" width="4" height="6" xlink:href="50C93CF84BFD85FD.jpg" transform="matrix(2.7598 0 0 -2.7598 229.69 201.2202)"/>
      </g>
    </g>
    <g>
      <defs>
        <polyline id="SVGID_11_" points="237.3 187.5 237.3 187.5 237.3 187.5 237.3 187.5 237.3 187.5 "/>
      </defs>
      <clipPath id="SVGID_12_">
        <use xlink:href="#SVGID_11_" overflow="visible"/>
      </clipPath>
      <g transform="matrix(1 0 0 1 -1.525879e-05 0)" clip-path="url(#SVGID_12_)">
        <image overflow="visible" width="3" height="3" xlink:href="50C93CF84BFD85FF.jpg" transform="matrix(2.7598 0 0 -2.7598 232.4492 192.9379)"/>
      </g>
    </g>
    <linearGradient id="SVGID_13_" gradientUnits="userSpaceOnUse" x1="381.3257" y1="978.5237" x2="387.0752" y2="978.5237" gradientTransform="matrix(6.6613 4.4928 4.4928 -6.6613 -6711.0557 4901.2778)">
      <stop offset="0" stop-color="#FFF8B3"/>
      <stop offset="0.4607" stop-color="#FFF8B3"/>
      <stop offset="0.7191" stop-color="#FFD766"/>
      <stop offset="0.7215" stop-color="#FDD562"/>
      <stop offset="0.7421" stop-color="#EDC348"/>
      <stop offset="0.7654" stop-color="#E0B432"/>
      <stop offset="0.7928" stop-color="#D6A921"/>
      <stop offset="0.8266" stop-color="#CFA115"/>
      <stop offset="0.8737" stop-color="#CB9C0E"/>
      <stop offset="1" stop-color="#CA9B0C"/>
    </linearGradient>
    <path fill="url(#SVGID_13_)" d="M240.8 118.2c3.9-0.4 5.6-0.8 5.6-0.8l5.6-21 2.9-3.2c0.4-19.4-1.6-1.4-1.6-1.4s-7.3 15.2-9.9 18.7c-2.6 3.5-6.1-2.7-8.6 2.7 -2.6 5.4-3.9 11.7-13.4 12 0 0 1.7 1.3 4.2 3.1 4.3-0.2 8.2-1.4 11.8-3.9C241.3 121.7 236.9 118.6 240.8 118.2z"/>
    <linearGradient id="SVGID_14_" gradientUnits="userSpaceOnUse" x1="366.3307" y1="1046.8842" x2="372.0803" y2="1046.8842" gradientTransform="matrix(5.1094 0 0 -5.1094 -1645.8939 5491.3418)">
      <stop offset="0" stop-color="#FFF8B3"/>
      <stop offset="3.932580e-02" stop-color="#FFF8B3"/>
      <stop offset="0.4775" stop-color="#FFD766"/>
      <stop offset="0.5951" stop-color="#FDD562"/>
      <stop offset="0.703" stop-color="#F6CD57"/>
      <stop offset="0.8071" stop-color="#EBC145"/>
      <stop offset="0.9082" stop-color="#DCAF2B"/>
      <stop offset="1" stop-color="#CA9B0C"/>
    </linearGradient>
    <path fill="url(#SVGID_14_)" d="M255 93.3l-2.9 3.2 -5.6 21c0 0-1.7 0.4-5.6 0.8 -3.9 0.4 0.4 3.5-3.5 6.2 -3.6 2.5-7.5 3.7-11.8 3.9 1.8 1.2 4.1 2.6 6.6 3.9 6.1 3.1 6.9 7.4 7.4 12.4 0.3 4 0.7 29.2-2.2 42.9 0.2 1.3 0.3 2.7 0.5 4.1 5.5-8.7 14.2-29 16-67.1C254.5 109.2 254.9 99.4 255 93.3z"/>
    <linearGradient id="SVGID_15_" gradientUnits="userSpaceOnUse" x1="298.2805" y1="1089.3119" x2="304.0301" y2="1089.3119" gradientTransform="matrix(3.0102 0.3012 0.3012 -3.0102 -956.2345 3319.2681)">
      <stop offset="0" stop-color="#FFF8B3"/>
      <stop offset="0.2809" stop-color="#FFD766"/>
      <stop offset="0.3001" stop-color="#FCD461"/>
      <stop offset="0.4919" stop-color="#E1B533"/>
      <stop offset="0.6397" stop-color="#D0A217"/>
      <stop offset="0.7247" stop-color="#CA9B0C"/>
      <stop offset="1" stop-color="#CA9B0C"/>
    </linearGradient>
    <path fill="url(#SVGID_15_)" d="M279.3 129.5c0 0-2.2-1.5-3.9-2.3 -1.7-0.8-6.5-0.4-6.1 1.9 0.4 2.3 8.6 10.1 8.6 10.1s6-3.9 6.5-12.8C284.9 117.5 279.3 129.5 279.3 129.5z"/>
    <path fill="#FFD866" d="M287.5 141.5c0 0-4.8 10.1-4.8 11.3 0 1.2-7.8 17.5-7.8 17.5l10.4-13.2L287.5 141.5z"/>
    <radialGradient id="SVGID_16_" cx="412.3317" cy="1010.9888" r="5.7496" gradientTransform="matrix(9.1387 0 0 -8.2201 -3508.2053 8510.1426)" gradientUnits="userSpaceOnUse">
      <stop offset="0" stop-color="#FFF8B3"/>
      <stop offset="3.932580e-02" stop-color="#FFF8B3"/>
      <stop offset="0.264" stop-color="#FFD766"/>
      <stop offset="0.8202" stop-color="#CA9B0C"/>
      <stop offset="0.8836" stop-color="#CE9F0B"/>
      <stop offset="0.9477" stop-color="#DAAB09"/>
      <stop offset="1" stop-color="#E9BB07"/>
    </radialGradient>
    <polygon fill="url(#SVGID_16_)" points="265.5 189.7 259 226.2 244.3 236.7 224.4 252.3 262.4 193.2 252.1 221.2 255.1 218.5 "/>
    <linearGradient id="SVGID_17_" gradientUnits="userSpaceOnUse" x1="397.1226" y1="1015.3342" x2="402.8723" y2="1015.3342" gradientTransform="matrix(7.5117 0 0 -7.5117 -2760.3123 7824.5894)">
      <stop offset="0" stop-color="#FFF8B3"/>
      <stop offset="3.932580e-02" stop-color="#FFF8B3"/>
      <stop offset="0.5" stop-color="#FFD766"/>
      <stop offset="0.6125" stop-color="#FDD562"/>
      <stop offset="0.7157" stop-color="#F6CD57"/>
      <stop offset="0.8153" stop-color="#EBC145"/>
      <stop offset="0.9121" stop-color="#DCAF2B"/>
      <stop offset="1" stop-color="#CA9B0C"/>
    </linearGradient>
    <path fill="url(#SVGID_17_)" d="M256.4 192c-0.8 0.9-9.9 22.9-15.1 29.9 -5.2 7-18.6 27.2-18.6 27.2l3-15.2c0 0 14.7-29.1 15.5-33 0.9-3.9 9.9-19 9.9-19s7.3-14.8 7.3-16.7c0-1.9 1.3-8.5 1.3-8.5l2.6-10.5 3.5 19.8C265.9 166 260.7 187.4 256.4 192z"/>
    <radialGradient id="SVGID_18_" cx="388.8862" cy="1019.8757" r="5.7496" gradientTransform="matrix(6.5058 0 0 -5.8519 -2291.0845 6230.3896)" gradientUnits="userSpaceOnUse">
      <stop offset="0" stop-color="#FFF8B3"/>
      <stop offset="3.932580e-02" stop-color="#FFF8B3"/>
      <stop offset="0.264" stop-color="#FFD766"/>
      <stop offset="0.8202" stop-color="#CA9B0C"/>
      <stop offset="0.8836" stop-color="#CE9F0B"/>
      <stop offset="0.9477" stop-color="#DAAB09"/>
      <stop offset="1" stop-color="#E9BB07"/>
    </radialGradient>
    <path fill="url(#SVGID_18_)" d="M252.9 245.3c0.3-1.9-5.6 5.8-9.1 8.2 -3.5 2.3-11.7 8.2-11.7 8.2s5.2 1.2 11.7-4.7C250.3 251.1 252.5 248 252.9 245.3z"/>
    <radialGradient id="SVGID_19_" cx="404.8221" cy="1006.532" r="5.7496" gradientTransform="matrix(8.294 0 0 -7.694 -3120.5442 8013.2676)" gradientUnits="userSpaceOnUse">
      <stop offset="0" stop-color="#FFF8B3"/>
      <stop offset="3.932580e-02" stop-color="#FFF8B3"/>
      <stop offset="0.264" stop-color="#FFD766"/>
      <stop offset="0.4775" stop-color="#CA9B0C"/>
      <stop offset="0.6616" stop-color="#CE9F0B"/>
      <stop offset="0.848" stop-color="#DAAB09"/>
      <stop offset="1" stop-color="#E9BB07"/>
    </radialGradient>
    <path fill="url(#SVGID_19_)" d="M244.9 248.6l-8.8 4.6 3.3-8.2 2.8-5.6 -19.3 15.8 -8.8 13.3 8.3-1c0 0 16.5-7.2 23.7-19.4L244.9 248.6z"/>
    <linearGradient id="SVGID_20_" gradientUnits="userSpaceOnUse" x1="422.7815" y1="991.1078" x2="428.531" y2="991.1078" gradientTransform="matrix(12.5059 0 0 -12.5059 -5078.3569 12667.8574)">
      <stop offset="0" stop-color="#2A8D39"/>
      <stop offset="7.100941e-02" stop-color="#2C8F3C"/>
      <stop offset="0.1238" stop-color="#329545"/>
      <stop offset="0.1708" stop-color="#3B9F56"/>
      <stop offset="0.214" stop-color="#49AD6C"/>
      <stop offset="0.2472" stop-color="#57BC83"/>
      <stop offset="0.6854" stop-color="#005A2E"/>
      <stop offset="0.7415" stop-color="#056130"/>
      <stop offset="0.8205" stop-color="#117336"/>
      <stop offset="0.9126" stop-color="#26913F"/>
      <stop offset="1" stop-color="#3EB44A"/>
    </linearGradient>
    <path fill="url(#SVGID_20_)" d="M278.9 275.7c-2.1-3.3-3.9-5.9-4.9-7.1l-0.8-1.1c-6.5 1.7-20.6 2.3-32 2.3 -10.9 0-23.9-1.2-28.9-1.7 -0.8 1.2-2.9 4.2-5.3 8 4 0.8 13.3 2 34.2 2.7C266 279.5 275.6 277 278.9 275.7z"/>
    <linearGradient id="SVGID_21_" gradientUnits="userSpaceOnUse" x1="433.7495" y1="983.1154" x2="439.499" y2="983.1154" gradientTransform="matrix(17.4395 0 0 -17.4395 -7368.0996 17444.2324)">
      <stop offset="0" stop-color="#2A8D39"/>
      <stop offset="7.100941e-02" stop-color="#2C8F3C"/>
      <stop offset="0.1238" stop-color="#329545"/>
      <stop offset="0.1708" stop-color="#3B9F56"/>
      <stop offset="0.214" stop-color="#49AD6C"/>
      <stop offset="0.2472" stop-color="#57BC83"/>
      <stop offset="0.6854" stop-color="#005A2E"/>
      <stop offset="0.7415" stop-color="#056130"/>
      <stop offset="0.8205" stop-color="#117336"/>
      <stop offset="0.9126" stop-color="#26913F"/>
      <stop offset="1" stop-color="#3EB44A"/>
    </linearGradient>
    <path fill="url(#SVGID_21_)" d="M294.4 300.8c0 0-2.1-3.5-5-8.3 -5.8 3-30.9 3.8-50.6 3.8 -20.2 0-40.2-4.6-40.2-4.6l-0.9-0.2c-1.1 2.2-1.9 4.1-2.3 5.4 -0.6 2.4-1 4.2-1.3 5.5 5.4 1.5 17.4 3.4 44.7 4.1 35.5 1 49.6-1.8 54.7-3.4C294.6 301.7 294.4 300.8 294.4 300.8z"/>
    <radialGradient id="SVGID_22_" cx="414.1662" cy="1002.5251" r="5.7496" gradientTransform="matrix(9.7535 0 0 -8.5675 -3796.155 8858.1738)" gradientUnits="userSpaceOnUse">
      <stop offset="0" stop-color="#FFF8B3"/>
      <stop offset="3.932580e-02" stop-color="#FFF8B3"/>
      <stop offset="0.264" stop-color="#FFD766"/>
      <stop offset="0.8202" stop-color="#CA9B0C"/>
      <stop offset="0.8836" stop-color="#CE9F0B"/>
      <stop offset="0.9477" stop-color="#DAAB09"/>
      <stop offset="1" stop-color="#E9BB07"/>
    </radialGradient>
    <path fill="url(#SVGID_22_)" d="M264.1 244.6c0.5-2.8-8.4 8.5-13.6 11.9 -5.2 3.4-17.5 11.9-17.5 11.9s7.8 1.7 17.5-6.8C260.3 253.2 263.5 248.6 264.1 244.6z"/>
    <linearGradient id="SVGID_23_" gradientUnits="userSpaceOnUse" x1="539.5195" y1="1002.7195" x2="545.269" y2="1002.7195" gradientTransform="matrix(-3.4485 -7.0352 -7.0352 3.4485 9123.8232 475.1224)">
      <stop offset="0" stop-color="#FFF8B3"/>
      <stop offset="0.1573" stop-color="#FFF8B3"/>
      <stop offset="0.4607" stop-color="#FFDB70"/>
      <stop offset="1" stop-color="#CA9B0C"/>
    </linearGradient>
    <path fill="url(#SVGID_23_)" d="M190.2 97.7l0.3 11.6 5.8 10.8c0 0 6.8 7.9 10 9.6 3.2 1.8-7.8-7.6-9.4-15.7 -1.6-8.2-3.2-17.2-3.2-17.2L190.2 97.7z"/>
    <linearGradient id="SVGID_24_" gradientUnits="userSpaceOnUse" x1="507.1024" y1="984.6476" x2="512.8519" y2="984.6476" gradientTransform="matrix(-6.7264 -11.0157 -11.0157 6.7264 14499.3203 -839.1671)">
      <stop offset="0" stop-color="#FFF8B3"/>
      <stop offset="0.1573" stop-color="#FFF8B3"/>
      <stop offset="0.4607" stop-color="#FFDB70"/>
      <stop offset="1" stop-color="#CA9B0C"/>
    </linearGradient>
    <path fill="url(#SVGID_24_)" d="M208.1 135l2.5 20.8 7.8 18.8c0 0 8.2 13.5 11.8 16.4 3.5 2.9-9.1-12.9-12.3-27.4 -3.1-14.5-6.4-30.5-6.4-30.5L208.1 135z"/>
    <path fill="#FFFFFF" d="M245.1 50.4c26.1 0 47.4 18.8 48.2 42.3l0-1.4c0-24.1-21.6-43.7-48.2-43.7 -26.6 0-48.2 19.6-48.2 43.7l0 1.4C197.7 69.2 219 50.4 245.1 50.4z"/>
  </g>
  <path fill="#fff" d="M159.9 83c-0.4 0-0.7-0.1-1.1-0.3L56 32.5c-1.2-0.6-1.8-2.1-1.1-3.3 0.6-1.2 2.1-1.8 3.3-1.1L161 78.3c1.2 0.6 1.8 2.1 1.1 3.3C161.7 82.5 160.8 83 159.9 83z"/>
  <path fill="#fff" d="M151.6 151.6H65.3c-1.4 0-2.5-1.1-2.5-2.5s1.1-2.5 2.5-2.5h86.4c1.4 0 2.5 1.1 2.5 2.5S153 151.6 151.6 151.6z"/>
  <path fill="#FFDE00" d="M50.5 281c-0.9 0-1.8-0.5-2.2-1.4 -0.6-1.2-0.1-2.7 1.1-3.3l107.1-52.4c1.2-0.6 2.7-0.1 3.3 1.1 0.6 1.2 0.1 2.7-1.1 3.3L51.6 280.7C51.3 280.9 50.9 281 50.5 281z"/>
  <path fill="#FFDE00" d="M128.4 113.1c-0.1 0-0.3 0-0.4 0L10 91.8c-1.4-0.2-2.3-1.5-2-2.9 0.2-1.4 1.5-2.3 2.9-2l118 21.3c1.4 0.2 2.3 1.5 2 2.9C130.7 112.3 129.6 113.1 128.4 113.1z"/>
  <path fill="#fff" d="M6.3 219.7c-1.1 0-2.1-0.8-2.4-1.9 -0.3-1.3 0.5-2.7 1.8-3l121.8-29.7c1.3-0.3 2.7 0.5 3 1.8 0.3 1.3-0.5 2.7-1.8 3L6.9 219.7C6.7 219.7 6.5 219.7 6.3 219.7z"/>
  <path fill="#fff" d="M337.3 225.7c0.4 0 0.7 0.1 1.1 0.3l102.8 50.3c1.2 0.6 1.8 2.1 1.1 3.3 -0.6 1.2-2.1 1.8-3.3 1.1l-102.8-50.3c-1.2-0.6-1.8-2.1-1.1-3.3C335.5 226.2 336.4 225.7 337.3 225.7z"/>
  <path fill="#fff" d="M345.5 157.2h86.4c1.4 0 2.5 1.1 2.5 2.5s-1.1 2.5-2.5 2.5h-86.4c-1.4 0-2.5-1.1-2.5-2.5S344.1 157.2 345.5 157.2z"/>
  <path fill="#FFDE00" d="M446.6 27.8c0.9 0 1.8 0.5 2.2 1.4 0.6 1.2 0.1 2.7-1.1 3.3L340.6 84.9c-1.2 0.6-2.7 0.1-3.3-1.1 -0.6-1.2-0.1-2.7 1.1-3.3L445.5 28C445.9 27.9 446.2 27.8 446.6 27.8z"/>
  <path fill="#FFDE00" d="M368.7 195.6c0.1 0 0.3 0 0.4 0l118 21.3c1.4 0.2 2.3 1.5 2 2.9 -0.2 1.4-1.5 2.3-2.9 2l-118-21.3c-1.4-0.2-2.3-1.5-2-2.9C366.5 196.5 367.5 195.6 368.7 195.6z"/>
  <path fill="#fff" d="M490.9 89c1.1 0 2.1 0.8 2.4 1.9 0.3 1.3-0.5 2.7-1.8 3l-121.8 29.7c-1.3 0.3-2.7-0.5-3-1.8 -0.3-1.3 0.5-2.7 1.8-3l121.8-29.7C490.5 89 490.7 89 490.9 89z"/>
</svg>
